<svg width="476" height="394" viewBox="0 0 476 394" fill="none" xmlns="http://www.w3.org/2000/svg">
<path d="M442.66 112.44L451 99.07L446.88 96.52C446.297 96.1492 445.828 95.6238 445.526 95.0023C445.224 94.3807 445.101 93.6875 445.17 93C445.237 92.2386 445.263 91.4742 445.25 90.71C445.223 90.0121 445.392 89.3206 445.736 88.713C446.081 88.1054 446.588 87.6057 447.2 87.27L451.44 84.99L444 71.12L439.76 73.4C439.163 73.7236 438.488 73.8753 437.81 73.8382C437.132 73.8012 436.478 73.5768 435.92 73.19C435.234 72.7125 434.523 72.2718 433.79 71.87C433.194 71.542 432.7 71.0556 432.363 70.4643C432.025 69.8731 431.858 69.2002 431.88 68.52L432.03 63.7L416.31 63.21L416.16 68.05C416.138 68.7313 415.927 69.3932 415.551 69.9617C415.175 70.5303 414.648 70.9832 414.03 71.27C413.66 71.44 413.3 71.63 412.94 71.82C412.58 72.01 412.22 72.22 411.87 72.43C411.291 72.7855 410.625 72.9736 409.945 72.9736C409.265 72.9736 408.599 72.7855 408.02 72.43L403.9 69.88L395.61 83.25L399.74 85.81C400.319 86.182 400.784 86.7066 401.084 87.3259C401.384 87.9451 401.507 88.6352 401.44 89.32C401.373 90.0847 401.347 90.8525 401.36 91.62C401.383 92.316 401.214 93.005 400.87 93.6105C400.525 94.2159 400.02 94.7142 399.41 95.05L395.17 97.33L402.6 111.19L406.85 108.92C407.467 108.595 408.163 108.448 408.858 108.496C409.554 108.544 410.223 108.784 410.79 109.19C411.418 109.627 412.069 110.031 412.74 110.4C413.355 110.716 413.868 111.199 414.222 111.793C414.575 112.387 414.755 113.069 414.74 113.76L414.59 118.62L430.32 119.11L430.47 114.28C430.498 113.591 430.717 112.924 431.102 112.352C431.487 111.78 432.023 111.326 432.65 111.04C433 110.87 433.35 110.7 433.7 110.51C434.05 110.32 434.38 110.13 434.7 109.94C435.289 109.575 435.967 109.382 436.66 109.382C437.353 109.382 438.031 109.575 438.62 109.94L442.66 112.44ZM430.78 101.62C428.592 103.193 425.967 104.041 423.273 104.045C420.578 104.049 417.95 103.208 415.758 101.641C413.566 100.074 411.92 97.86 411.052 95.3093C410.184 92.7586 410.136 89.9999 410.917 87.421C411.697 84.8421 413.266 82.5726 415.404 80.9316C417.541 79.2905 420.138 78.3605 422.831 78.2721C425.524 78.1837 428.177 78.9414 430.417 80.4388C432.657 81.9361 434.372 84.0978 435.32 86.62C436.318 89.2715 436.415 92.1782 435.594 94.8899C434.773 97.6017 433.081 99.9672 430.78 101.62Z" fill="#EBEBEB"/>
<path d="M30.53 236C30.9473 236.247 31.288 236.605 31.5139 237.034C31.7399 237.463 31.8424 237.946 31.81 238.43C31.81 238.7 31.81 238.97 31.81 239.24C31.81 239.51 31.81 239.79 31.81 240.06C31.8427 240.541 31.7413 241.022 31.5171 241.45C31.2929 241.877 30.9547 242.233 30.54 242.48L27.6 244.2L33.11 253.75L36 252.06C36.4218 251.818 36.9032 251.699 37.3893 251.716C37.8755 251.734 38.3469 251.888 38.75 252.16C39.2084 252.458 39.6824 252.732 40.17 252.98C40.6028 253.197 40.9672 253.53 41.223 253.941C41.4789 254.352 41.6162 254.826 41.62 255.31V258.68H52.62V255.31C52.633 254.823 52.781 254.349 53.0477 253.941C53.3143 253.533 53.689 253.207 54.13 253C54.6176 252.752 55.0916 252.478 55.55 252.18C55.9531 251.908 56.4246 251.754 56.9107 251.736C57.3968 251.719 57.8782 251.838 58.3 252.08L61.23 253.77L66.74 244.22L63.8 242.52C63.3827 242.276 63.0418 241.92 62.8157 241.492C62.5896 241.065 62.4872 240.583 62.52 240.1C62.52 239.83 62.52 239.56 62.52 239.29C62.52 239.02 62.52 238.75 62.52 238.48C62.478 237.988 62.5758 237.494 62.8023 237.055C63.0288 236.617 63.3746 236.251 63.8 236L66.74 234.31L61.23 224.76L58.31 226.45C57.8884 226.691 57.4079 226.811 56.9222 226.795C56.4366 226.779 55.965 226.629 55.56 226.36C55.0983 226.058 54.621 225.781 54.13 225.53C53.6972 225.313 53.3329 224.98 53.077 224.569C52.8212 224.158 52.6838 223.684 52.68 223.2V219.83H41.68V223.2C41.6762 223.684 41.5389 224.158 41.283 224.569C41.0272 224.98 40.6628 225.313 40.23 225.53C39.739 225.781 39.2617 226.058 38.8 226.36C38.3951 226.629 37.9234 226.779 37.4378 226.795C36.9521 226.811 36.4717 226.691 36.05 226.45L33.13 224.76L27.62 234.31L30.53 236ZM47.17 230.21C48.95 230.21 50.6901 230.738 52.1701 231.727C53.6502 232.716 54.8037 234.121 55.4849 235.766C56.1661 237.41 56.3443 239.22 55.9971 240.966C55.6498 242.712 54.7926 244.315 53.534 245.574C52.2753 246.833 50.6716 247.69 48.9258 248.037C47.18 248.384 45.3704 248.206 43.7259 247.525C42.0813 246.844 40.6757 245.69 39.6868 244.21C38.6979 242.73 38.17 240.99 38.17 239.21C38.1779 236.828 39.1297 234.547 40.8166 232.865C42.5036 231.184 44.7882 230.24 47.17 230.24V230.21Z" fill="#EBEBEB"/>
<path d="M375.07 60.18L371.86 46.45L367.63 47.45C367.027 47.586 366.398 47.5514 365.813 47.3501C365.229 47.1487 364.711 46.7886 364.32 46.31C363.881 45.7814 363.41 45.2805 362.91 44.81C362.453 44.3823 362.123 43.8364 361.957 43.2327C361.791 42.6291 361.796 41.9913 361.97 41.39L363.21 37.26L349.71 33.18L348.46 37.32C348.289 37.9034 347.959 38.4277 347.507 38.834C347.055 39.2403 346.498 39.5125 345.9 39.62C345.161 39.7497 344.43 39.92 343.71 40.13C343.124 40.3028 342.502 40.3082 341.914 40.1457C341.325 39.9831 340.794 39.6589 340.38 39.21L337.38 36.07L327.11 45.72L330.11 48.88C330.527 49.3258 330.813 49.8788 330.935 50.4773C331.057 51.0758 331.01 51.6964 330.8 52.27C330.68 52.62 330.56 52.96 330.45 53.27C330.34 53.58 330.25 53.98 330.17 54.33C330.025 54.9225 329.72 55.4637 329.288 55.8941C328.856 56.3245 328.313 56.6276 327.72 56.77L323.49 57.77L326.71 71.5L330.95 70.5C331.554 70.3663 332.183 70.403 332.768 70.6061C333.352 70.8091 333.869 71.1705 334.26 71.65C334.7 72.1739 335.168 72.6746 335.66 73.15C336.117 73.5754 336.447 74.1196 336.613 74.7217C336.779 75.3239 336.775 75.9603 336.6 76.56L335.35 80.69L348.85 84.77L350.1 80.63C350.287 80.0344 350.636 79.5024 351.107 79.0929C351.579 78.6833 352.154 78.4124 352.77 78.31C353.445 78.1888 354.112 78.0319 354.77 77.84C355.36 77.6561 355.99 77.6401 356.589 77.7937C357.187 77.9474 357.731 78.2646 358.16 78.71L361.16 81.89L371.44 72.23L368.44 69.08C368.025 68.6226 367.742 68.0601 367.624 67.4536C367.506 66.8471 367.557 66.2199 367.77 65.64C367.89 65.31 368 64.98 368.1 64.64C368.2 64.3 368.29 63.97 368.38 63.64C368.517 63.0331 368.821 62.4765 369.257 62.033C369.694 61.5895 370.245 61.2768 370.85 61.13L375.07 60.18ZM360.69 60.85C360.298 63.2311 359.171 65.4297 357.465 67.1371C355.76 68.8444 353.563 69.9748 351.182 70.3695C348.802 70.7641 346.357 70.4032 344.192 69.3375C342.027 68.2717 340.25 66.5546 339.111 64.4273C337.972 62.3 337.528 59.8693 337.841 57.4766C338.154 55.0839 339.208 52.8493 340.857 51.0867C342.505 49.324 344.663 48.1219 347.03 47.6489C349.396 47.176 351.851 47.4562 354.05 48.45C356.368 49.4974 358.275 51.2806 359.475 53.5227C360.676 55.7647 361.103 58.3404 360.69 60.85Z" fill="#EBEBEB"/>
<path d="M175.989 89.0119C181.922 52.0567 156.773 17.2894 119.817 11.3569C82.8623 5.42438 48.095 30.5732 42.1625 67.5284C36.23 104.484 61.3788 139.251 98.334 145.183C135.289 151.116 170.057 125.967 175.989 89.0119Z" fill="#EBEBEB"/>
<path d="M112.18 144.43C147.891 144.43 176.84 115.481 176.84 79.77C176.84 44.0593 147.891 15.11 112.18 15.11C76.4693 15.11 47.52 44.0593 47.52 79.77C47.52 115.481 76.4693 144.43 112.18 144.43Z" fill="#DBDBDB"/>
<path d="M112.18 140.35C145.637 140.35 172.76 113.227 172.76 79.77C172.76 46.3126 145.637 19.19 112.18 19.19C78.7226 19.19 51.6 46.3126 51.6 79.77C51.6 113.227 78.7226 140.35 112.18 140.35Z" fill="white"/>
<path opacity="0.5" d="M171.39 66.92C143.8 83.63 98.46 111.05 73.12 126.08C65.9557 120.04 60.2905 112.42 56.57 103.82L140.38 26.15C148.209 30.2737 155.041 36.0597 160.398 43.1025C165.755 50.1452 169.506 58.2743 171.39 66.92Z" fill="#EBEBEB"/>
<path opacity="0.5" d="M172.71 81.89C172.49 88.6279 171.138 95.2808 168.71 101.57L93.15 137.31C89.8587 136.219 86.667 134.847 83.61 133.21C106.44 120 148.14 96 172.71 81.89Z" fill="#EBEBEB"/>
<path d="M112.76 23.59H111.59V32.77H112.76V23.59Z" fill="#C7C7C7"/>
<path d="M84.5905 30.8161L83.5773 31.4011L88.1673 39.3512L89.1805 38.7662L84.5905 30.8161Z" fill="#C7C7C7"/>
<path d="M63.8103 51.1737L63.2253 52.1869L71.1754 56.7769L71.7604 55.7637L63.8103 51.1737Z" fill="#C7C7C7"/>
<path d="M65.18 79.19H56V80.36H65.18V79.19Z" fill="#C7C7C7"/>
<path d="M71.1791 102.786L63.229 107.376L63.814 108.39L71.7641 103.8L71.1791 102.786Z" fill="#C7C7C7"/>
<path d="M88.1659 120.194L83.5801 128.147L84.5936 128.731L89.1795 120.779L88.1659 120.194Z" fill="#C7C7C7"/>
<path d="M112.76 126.77H111.59V135.95H112.76V126.77Z" fill="#C7C7C7"/>
<path d="M136.179 120.189L135.166 120.774L139.756 128.724L140.769 128.139L136.179 120.189Z" fill="#C7C7C7"/>
<path d="M153.169 102.761L152.584 103.774L160.534 108.364L161.119 107.351L153.169 102.761Z" fill="#C7C7C7"/>
<path d="M168.36 79.19H159.18V80.36H168.36V79.19Z" fill="#C7C7C7"/>
<path d="M160.537 51.1894L152.587 55.7794L153.172 56.7926L161.122 52.2026L160.537 51.1894Z" fill="#C7C7C7"/>
<path d="M139.756 30.8229L135.17 38.7754L136.184 39.3599L140.77 31.4073L139.756 30.8229Z" fill="#C7C7C7"/>
<path d="M113.06 27.75L115.05 83.86L109.31 83.79L111.5 27.73L113.06 27.75Z" fill="#C7C7C7"/>
<path d="M148.01 60.21L110.26 84.3L107.52 79.25L147.27 58.83L148.01 60.21Z" fill="#A6A6A6"/>
<path d="M114.14 79.77C114.14 80.1656 114.023 80.5522 113.803 80.8811C113.583 81.21 113.271 81.4664 112.905 81.6178C112.54 81.7691 112.138 81.8087 111.75 81.7316C111.362 81.6544 111.006 81.4639 110.726 81.1842C110.446 80.9045 110.256 80.5481 110.178 80.1602C110.101 79.7722 110.141 79.3701 110.292 79.0046C110.444 78.6392 110.7 78.3268 111.029 78.1071C111.358 77.8873 111.744 77.77 112.14 77.77C112.67 77.77 113.179 77.9807 113.554 78.3558C113.929 78.7309 114.14 79.2396 114.14 79.77Z" fill="#C7C7C7"/>
<path d="M404.56 262.31C404.56 262.31 388.9 258.76 380.32 250.85C371.74 242.94 367 228.78 367 228.78C372.951 229.923 378.817 231.466 384.56 233.4C386.712 235.61 388.503 238.145 389.87 240.91C390.002 239.122 390.002 237.328 389.87 235.54C391.873 236.407 393.747 237.544 395.44 238.92C402.55 245.15 404.56 262.31 404.56 262.31Z" fill="#DBDBDB"/>
<path d="M376.72 235.67C374.59 234.19 372.42 232.77 370.29 231.28C370.262 231.263 370.242 231.235 370.235 231.203C370.227 231.171 370.233 231.138 370.25 231.11C370.267 231.082 370.295 231.062 370.327 231.055C370.359 231.047 370.392 231.053 370.42 231.07C374.42 233.48 378.42 236.07 382.28 238.75C383.62 239.69 384.94 240.67 386.28 241.67L386.01 241.2C385.54 240.42 385.01 239.64 384.55 238.87C383.565 237.303 382.451 235.822 381.22 234.44C381.22 234.39 381.22 234.31 381.3 234.36C382.52 235.77 383.74 237.16 384.85 238.65C385.38 239.36 385.85 240.1 386.34 240.85C386.58 241.24 386.82 241.63 387.04 242.03L387.28 242.43C389.28 244.02 391.28 245.68 393.15 247.43C394.31 248.51 395.43 249.64 396.52 250.79C395.91 248.9 395.38 246.98 394.68 245.12C394.68 245.107 394.685 245.094 394.695 245.085C394.704 245.075 394.717 245.07 394.73 245.07C394.743 245.07 394.756 245.075 394.765 245.085C394.775 245.094 394.78 245.107 394.78 245.12C395.46 247.12 396.21 249.04 396.78 251.05C397.98 252.35 399.12 253.69 400.2 255.05C400.188 254.962 400.171 254.876 400.15 254.79C399.97 254.06 399.79 253.32 399.59 252.59C399.21 251.17 398.79 249.76 398.31 248.38C397.41 245.494 395.987 242.799 394.11 240.43C394.11 240.38 394.11 240.31 394.18 240.36C397.117 244.016 399.17 248.3 400.18 252.88C400.347 253.547 400.507 254.213 400.66 254.88C400.74 255.23 400.83 255.59 400.89 255.96C401.37 256.6 401.83 257.24 402.27 257.91C404.942 261.992 407.165 266.35 408.9 270.91C410.848 276.029 412.517 281.25 413.9 286.55C413.9 286.571 413.892 286.592 413.877 286.607C413.862 286.622 413.841 286.63 413.82 286.63C413.799 286.63 413.778 286.622 413.763 286.607C413.748 286.592 413.74 286.571 413.74 286.55C410.67 277.39 407.55 268.09 402.31 259.91C401.2 258.18 400 256.51 398.73 254.91C396.138 254.744 393.579 254.236 391.12 253.4C388.432 252.495 385.868 251.255 383.49 249.71C382.134 248.798 380.829 247.814 379.58 246.76C379.52 246.71 379.58 246.63 379.64 246.68C381.829 248.441 384.244 249.9 386.82 251.02C389.352 252.181 392 253.07 394.72 253.67C395.87 253.92 397.05 254.11 398.22 254.27C396.77 252.484 395.228 250.775 393.6 249.15C393.07 248.62 392.53 248.15 391.98 247.61C390.155 246.334 388.221 245.223 386.2 244.29C383.63 243.05 381.11 241.74 378.57 240.45C377.13 239.72 375.71 238.97 374.27 238.27C374.21 238.27 374.27 238.15 374.32 238.18C376.9 239.42 379.51 240.58 382.11 241.77C384.55 242.89 387.02 244.02 389.37 245.33L389.67 245.51C387.55 243.66 385.35 241.91 383.1 240.21C380.993 238.67 378.867 237.157 376.72 235.67Z" fill="#A6A6A6"/>
<path d="M377.61 243.74C378.89 244.3 380.18 244.79 381.44 245.38C382.7 245.97 383.97 246.7 385.2 247.38C385.212 247.387 385.221 247.398 385.224 247.411C385.228 247.424 385.227 247.438 385.22 247.45C385.213 247.462 385.202 247.471 385.189 247.474C385.176 247.478 385.162 247.477 385.15 247.47C383.9 246.87 382.64 246.31 381.4 245.69C380.16 245.07 378.88 244.37 377.58 243.8C377.52 243.81 377.55 243.71 377.61 243.74Z" fill="#A6A6A6"/>
<path d="M455.42 183.41C452.527 187.141 450.889 191.691 450.74 196.41C450.69 197.81 450.91 199.77 451.07 202.07C447.159 204.332 443.695 207.29 440.85 210.8C443.978 208.985 447.569 208.127 451.18 208.33C451.093 209.902 450.892 211.466 450.58 213.01C448.302 213.007 446.046 213.452 443.94 214.32C446.001 214.294 448.045 214.7 449.94 215.51C447.15 224.39 438.85 233.51 415.94 237.38C413.518 226.494 414.953 215.105 420 205.16C426.86 191.66 455.42 183.41 455.42 183.41Z" fill="#DBDBDB"/>
<path d="M408 275.38C408.39 271.59 408.89 267.8 409.48 264.04C410.64 256.49 412.182 249.004 414.1 241.61C414.998 238.143 416.103 234.734 417.41 231.4C417.34 230.789 417.31 230.175 417.32 229.56C417.32 228.83 417.32 228.1 417.32 227.36C417.32 225.9 417.41 224.43 417.53 222.97C417.764 220.073 418.236 217.2 418.94 214.38C419.36 212.75 419.84 211.14 420.32 209.53C420.32 209.517 420.325 209.504 420.335 209.495C420.344 209.485 420.357 209.48 420.37 209.48C420.383 209.48 420.396 209.485 420.405 209.495C420.415 209.504 420.42 209.517 420.42 209.53C419.662 212.345 419.098 215.208 418.73 218.1C418.323 220.951 418.066 223.822 417.96 226.7C417.96 227.48 417.96 228.27 417.96 229.06C417.96 229.39 417.96 229.73 417.96 230.06C419.082 227.317 420.371 224.645 421.82 222.06C424.144 217.964 426.764 214.044 429.66 210.33C429.665 209.897 429.726 209.467 429.84 209.05C429.95 208.54 430.06 208.05 430.18 207.52C430.407 206.473 430.667 205.433 430.96 204.4C431.53 202.32 432.28 200.32 432.96 198.27C432.96 198.257 432.965 198.244 432.975 198.235C432.984 198.225 432.997 198.22 433.01 198.22C433.023 198.22 433.036 198.225 433.045 198.235C433.055 198.244 433.06 198.257 433.06 198.27C432.46 200.27 432.06 202.4 431.59 204.46C431.36 205.46 431.14 206.46 430.91 207.53L430.58 209.06C430.585 209.1 430.585 209.14 430.58 209.18C431.51 208.01 432.45 206.86 433.42 205.73C437.79 200.6 442.59 195.86 447.42 191.17C448.01 190.59 448.62 190.03 449.22 189.46L449.29 189.53C444.68 194.35 440.14 199.21 435.84 204.31C434.84 205.52 433.84 206.74 432.84 207.99C433.36 207.63 433.84 207.29 434.4 206.99C435.73 206.12 437.08 205.27 438.47 204.49C439.86 203.71 441.26 202.95 442.69 202.24C444.12 201.53 445.69 200.92 447.15 200.1C447.21 200.1 447.26 200.17 447.2 200.19C445.751 200.859 444.354 201.634 443.02 202.51C441.63 203.33 440.23 204.17 438.87 205.04C437.51 205.91 436.17 206.73 434.87 207.6C433.75 208.32 432.66 209.11 431.5 209.78C428.791 213.203 426.287 216.782 424 220.5C422.615 222.834 421.35 225.237 420.21 227.7L421.03 227.34L423.13 226.41C424.48 225.81 425.83 225.23 427.18 224.64C429.75 223.52 432.36 222.5 434.88 221.27C436.302 220.604 437.678 219.846 439 219C439.06 219 439.11 219.05 439.05 219.09C434.36 222.33 429.05 224.61 423.89 226.91L421.64 227.91C421.02 228.18 420.4 228.49 419.76 228.73C418.222 232.171 416.928 235.717 415.89 239.34C413.835 246.634 412.166 254.031 410.89 261.5C409.58 268.98 408.69 276.5 408.01 284.08C407.92 285.02 407.83 285.96 407.73 286.91C407.73 286.99 407.698 287.066 407.642 287.122C407.586 287.178 407.51 287.21 407.43 287.21C407.35 287.21 407.274 287.178 407.218 287.122C407.162 287.066 407.13 286.99 407.13 286.91C407.21 283 407.61 279.2 408 275.38Z" fill="#A6A6A6"/>
<path d="M421.94 212.12C422.36 209.79 422.94 207.52 423.61 205.24C423.61 205.227 423.615 205.214 423.625 205.205C423.634 205.195 423.647 205.19 423.66 205.19C423.673 205.19 423.686 205.195 423.695 205.205C423.705 205.214 423.71 205.227 423.71 205.24C423.13 207.48 422.71 209.76 422.3 212.03C421.89 214.3 421.49 216.67 421.16 219.03H421.1C421.25 216.713 421.53 214.406 421.94 212.12Z" fill="#A6A6A6"/>
<path d="M431.81 218.44C433.41 217.392 435.081 216.457 436.81 215.64C437.64 215.2 438.49 214.79 439.33 214.38C440.17 213.97 441.11 213.61 441.97 213.17C442.04 213.17 442.09 213.24 442.03 213.27C441.19 213.69 440.39 214.2 439.57 214.65L437 216C435.32 216.9 433.68 217.89 431.92 218.62C431.899 218.618 431.88 218.612 431.862 218.601C431.844 218.591 431.83 218.576 431.819 218.558C431.808 218.541 431.802 218.521 431.8 218.5C431.799 218.48 431.802 218.459 431.81 218.44Z" fill="#A6A6A6"/>
<path opacity="0.1" d="M404.27 235.19C404.27 235.19 389.79 231.73 383.14 222.01C376.78 212.73 374.73 196.91 374.57 195.52C374.83 196.8 377.82 210.62 387.68 217.06C395.23 222 402.53 226.05 404.27 235.19Z" fill="#A6A6A6"/>
<path d="M390.9 210.16C393.476 212.529 395.328 215.581 396.24 218.96C395.172 215.663 393.33 212.67 390.87 210.23C390.78 210.19 390.85 210.11 390.9 210.16Z" fill="#A6A6A6"/>
<path d="M404.27 235.19C404.27 235.19 389.79 231.73 383.14 222.01C376.78 212.73 374.73 196.91 374.57 195.52C374.566 195.487 374.566 195.453 374.57 195.42C374.57 195.42 381.52 205.3 388.82 207.82C396.12 210.34 406.37 219.05 404.27 235.19Z" fill="#DBDBDB"/>
<path d="M377.12 200.87C378.418 203.533 379.916 206.093 381.6 208.53C383.303 210.845 385.322 212.908 387.6 214.66C389.6 216.22 391.6 217.66 393.6 219.17L393.55 219.1C393.18 218.54 392.78 218 392.37 217.48C391.54 216.42 390.63 215.42 389.72 214.43C387.92 212.43 386.08 210.56 384.47 208.43C383.569 207.265 382.789 206.012 382.14 204.69C382.14 204.63 382.21 204.6 382.24 204.69C384.59 209.58 389.29 212.69 392.63 216.85C393.109 217.436 393.556 218.047 393.97 218.68C394.302 219.138 394.584 219.631 394.81 220.15C396.642 221.622 398.3 223.3 399.75 225.15C399.623 224.201 399.429 223.262 399.17 222.34C398.835 221.049 398.316 219.813 397.63 218.67C397.63 218.61 397.69 218.55 397.72 218.61C398.427 219.755 398.995 220.98 399.41 222.26C399.715 223.274 399.893 224.322 399.94 225.38C400.654 226.355 401.305 227.373 401.89 228.43L401.71 227.5C401.43 226.06 401.11 224.62 400.71 223.19C400.028 220.29 398.851 217.529 397.23 215.03C397.23 214.97 397.28 214.92 397.32 214.97C398.978 217.441 400.277 220.135 401.18 222.97C401.64 224.39 402.01 225.83 402.33 227.29C402.49 228 402.64 228.72 402.77 229.44C402.84 229.81 402.92 230.19 402.98 230.57C404.417 233.725 405.539 237.014 406.33 240.39C407.746 246.425 408.775 252.544 409.41 258.71C410.163 265.165 410.497 271.662 410.41 278.16C410.41 278.97 410.35 279.78 410.31 280.6C410.31 280.81 409.98 280.84 409.97 280.6C409.83 277.38 409.75 274.17 409.56 270.95C409.37 267.73 409.09 264.53 408.74 261.33C408.091 255.036 407.089 248.782 405.74 242.6C404.57 237.3 403.05 231.97 400.15 227.33C398.712 225.021 396.951 222.93 394.92 221.12C392.92 219.29 390.67 217.7 388.53 216.01C386.363 214.366 384.396 212.473 382.67 210.37C380.896 208.031 379.352 205.526 378.06 202.89C377.72 202.23 377.37 201.58 377.06 200.89C377 200.87 377.09 200.81 377.12 200.87Z" fill="#A6A6A6"/>
<path d="M457.43 228.78C457.43 228.78 457.66 249.37 445.35 255.31C433.04 261.25 426.45 256.31 418.08 258.31C418.4 257.82 424.37 249.23 433.87 246.87C443.65 244.42 454.47 237.36 457.43 228.78Z" fill="#DBDBDB"/>
<path opacity="0.1" d="M457.43 228.78C457.43 228.78 457.66 249.37 445.35 255.31C433.04 261.25 426.45 256.31 418.08 258.31C422.499 256.201 427.224 254.807 432.08 254.18C439.85 253.22 454.68 248.17 457.43 228.78Z" fill="#A6A6A6"/>
<path d="M417.27 258.66C418.736 257.327 420.386 256.212 422.17 255.35C422.43 255.22 422.7 255.12 422.97 255C423.24 254.88 423.24 254.68 423.38 254.53C423.75 254.15 424.14 253.78 424.54 253.43C425.313 252.765 426.142 252.169 427.02 251.65C429.02 250.45 431.29 249.65 433.38 248.49C433.44 248.49 433.49 248.56 433.43 248.59C432.43 249.12 431.43 249.71 430.43 250.3C429.43 250.89 428.43 251.41 427.51 252.02C426.651 252.567 425.835 253.179 425.07 253.85C424.85 254.04 424.65 254.24 424.44 254.45C425.801 253.993 427.191 253.626 428.6 253.35C430.85 252.89 433.13 252.57 435.38 252.09C436.485 251.857 437.577 251.563 438.65 251.21C439.65 250.39 440.65 249.57 441.65 248.68C442.821 247.606 443.889 246.424 444.84 245.15C444.844 245.144 444.849 245.139 444.855 245.135C444.861 245.131 444.867 245.128 444.874 245.127C444.881 245.126 444.889 245.126 444.895 245.127C444.902 245.128 444.909 245.131 444.915 245.135C444.921 245.139 444.926 245.144 444.93 245.15C444.934 245.156 444.937 245.162 444.938 245.169C444.939 245.176 444.939 245.184 444.938 245.19C444.937 245.197 444.934 245.204 444.93 245.21C443.453 247.225 441.778 249.088 439.93 250.77C440.46 250.57 440.99 250.36 441.5 250.12C445.727 248.226 449.355 245.21 451.99 241.4C451.99 241.34 452.12 241.4 452.08 241.45C449.845 244.722 446.958 247.496 443.6 249.6C441.916 250.648 440.118 251.501 438.24 252.14C436.055 252.814 433.826 253.338 431.57 253.71C429.363 254.071 427.184 254.589 425.05 255.26C423.088 255.929 421.242 256.901 419.58 258.14C416.443 260.575 413.916 263.708 412.2 267.29C410.003 272.023 408.63 277.095 408.14 282.29C408.14 282.51 407.77 282.51 407.79 282.29C408.29 273.68 410.6 264.67 417.27 258.66Z" fill="#A6A6A6"/>
<path d="M431.56 252C432.202 251.04 433.071 250.253 434.09 249.71C435.251 249.095 436.272 248.248 437.09 247.22C437.09 247.16 437.22 247.22 437.18 247.27C436.44 248.213 435.539 249.019 434.52 249.65C433.403 250.248 432.417 251.064 431.62 252.05C431.6 252.05 431.53 252 431.56 252Z" fill="#A6A6A6"/>
<path d="M425.03 273.86L424.47 285.18L422.75 319.76H396.93L395.21 285.18L394.65 273.86H425.03Z" fill="#EBEBEB"/>
<path d="M425.03 273.86L424.47 285.18H395.21L394.65 273.86H425.03Z" fill="#DBDBDB"/>
<path d="M426.84 269.13H392.84V279.93H426.84V269.13Z" fill="#EBEBEB"/>
<path d="M238 393.15C369.184 393.15 475.53 381.384 475.53 366.87C475.53 352.356 369.184 340.59 238 340.59C106.816 340.59 0.470001 352.356 0.470001 366.87C0.470001 381.384 106.816 393.15 238 393.15Z" fill="#EBEBEB"/>
<path d="M18.76 319.76L73.57 319.52L128.38 319.43L238 319.27L347.62 319.43L402.43 319.52L457.24 319.76L402.43 320.01L347.62 320.1L238 320.26L128.38 320.1L73.57 320.01L18.76 319.76Z" fill="#263238"/>
<path d="M403.41 112.51H70.91V334.93H403.41V112.51Z" fill="#DBDBDB"/>
<path d="M400.99 115.22H73.33V332.21H400.99V115.22Z" fill="#37474F"/>
<path d="M446.71 351.6H27.6V366.86H446.71V351.6Z" fill="#C7C7C7"/>
<path d="M27.6 351.6L70.91 334.93H403.41L446.71 351.6H27.6Z" fill="#DBDBDB"/>
<path d="M74.78 345.69L102.72 334.93H371.6L399.54 345.69H74.78Z" fill="#37474F"/>
<path d="M382.47 131.71H91.84V315.73H382.47V131.71Z" fill="white"/>
<path d="M382.48 131.71H91.6V138.79H382.48V131.71Z" fill="#A6A6A6"/>
<path d="M97.23 135.25C97.23 135.598 97.1268 135.938 96.9334 136.228C96.74 136.517 96.4651 136.743 96.1435 136.876C95.8219 137.009 95.4681 137.044 95.1266 136.976C94.7852 136.908 94.4716 136.741 94.2255 136.495C93.9794 136.248 93.8117 135.935 93.7438 135.593C93.6759 135.252 93.7108 134.898 93.844 134.576C93.9772 134.255 94.2028 133.98 94.4922 133.787C94.7816 133.593 95.1219 133.49 95.47 133.49C95.7015 133.489 95.931 133.533 96.1451 133.621C96.3592 133.709 96.5538 133.839 96.7175 134.003C96.8812 134.166 97.0108 134.361 97.0987 134.575C97.1867 134.789 97.2313 135.019 97.23 135.25Z" fill="#C7C7C7"/>
<path d="M102.64 137.01C103.612 137.01 104.4 136.222 104.4 135.25C104.4 134.278 103.612 133.49 102.64 133.49C101.668 133.49 100.88 134.278 100.88 135.25C100.88 136.222 101.668 137.01 102.64 137.01Z" fill="white"/>
<path d="M111.57 135.25C111.57 135.598 111.467 135.938 111.273 136.228C111.08 136.517 110.805 136.743 110.484 136.876C110.162 137.009 109.808 137.044 109.467 136.976C109.125 136.908 108.812 136.741 108.565 136.495C108.319 136.248 108.152 135.935 108.084 135.593C108.016 135.252 108.051 134.898 108.184 134.576C108.317 134.255 108.543 133.98 108.832 133.787C109.122 133.593 109.462 133.49 109.81 133.49C110.041 133.489 110.271 133.533 110.485 133.621C110.699 133.709 110.894 133.839 111.057 134.003C111.221 134.166 111.351 134.361 111.439 134.575C111.527 134.789 111.571 135.019 111.57 135.25Z" fill="#DC2626"/>
<path d="M156.61 116.36C146.02 130.36 145.35 151.09 145.35 151.09C145.35 151.09 136.41 173.09 141.28 183.66C142.597 186.67 144.625 189.316 147.188 191.371C149.752 193.426 152.776 194.829 156 195.46L154 189.52C154 189.52 159.08 196.8 172.78 198.09C186.48 199.38 203.42 192.8 211.88 186.89C216.905 183.421 220.943 178.707 223.6 173.21L221.44 182.57C221.44 182.57 234.24 180.29 239.93 165.57C245.62 150.85 220.93 134.26 218.43 130.29C215.93 126.32 209.22 95.79 177.51 105.73C177.49 105.69 163.9 106.71 156.61 116.36Z" fill="#263238"/>
<path d="M151.21 195.33C147.29 194.12 143.72 190.82 141.35 187.56C138.801 184.136 137.474 179.957 137.58 175.69C137.77 170.57 139.78 165.79 141.73 161.13C143.73 156.31 146.12 151.62 148.05 146.78C148.15 146.51 147.75 146.36 147.6 146.58C145.193 150.375 143.006 154.305 141.05 158.35C138.99 162.086 137.372 166.049 136.23 170.16C135.164 173.949 135.205 177.964 136.35 181.73C137.425 184.788 139.234 187.535 141.62 189.73C144.43 192.37 147.75 193.85 151.08 195.67C151.102 195.679 151.126 195.683 151.15 195.682C151.174 195.681 151.197 195.676 151.219 195.666C151.241 195.656 151.261 195.642 151.277 195.625C151.294 195.608 151.306 195.587 151.315 195.565C151.324 195.543 151.328 195.519 151.327 195.495C151.326 195.471 151.321 195.448 151.311 195.426C151.301 195.404 151.287 195.384 151.27 195.368C151.253 195.351 151.232 195.339 151.21 195.33Z" fill="#263238"/>
<path d="M240.65 151.07C235.14 140.26 223.9 134.5 216.28 125.48C212.15 120.59 208.7 115.02 203.66 110.98C203.52 110.88 203.34 111.11 203.47 111.22C207.66 114.91 210.47 119.65 213.74 124.09C217.182 128.467 221.055 132.487 225.3 136.09C232.83 142.89 241.83 150.92 241.89 161.93C241.89 167.02 239.75 172.93 234.89 175.24C234.71 175.32 234.89 175.63 235.05 175.52C236.953 174.426 238.612 172.955 239.928 171.198C241.243 169.441 242.186 167.434 242.7 165.3C243.752 160.465 243.024 155.412 240.65 151.07Z" fill="#263238"/>
<path d="M241.56 154.06C241.292 149.707 239.686 145.544 236.96 142.14C234.2 138.79 230.3 136.65 226.45 134.8C222 132.67 217.36 130.72 214.17 126.8C214.04 126.63 213.81 126.86 213.94 127.02C219.03 133.5 227.28 135.69 233.39 140.88C240.39 146.82 241.79 156.71 238.75 165.07C236.786 170.177 233.644 174.747 229.58 178.41C229.51 178.47 229.58 178.58 229.68 178.51C236.64 172.39 242.3 163.7 241.56 154.06Z" fill="#263238"/>
<path d="M186 203.06C196.53 214.12 250.64 266.44 274.26 261.56C302.89 255.65 336.14 238.23 349.12 225.85C356.4 218.92 321.31 183.85 313.99 189.26C302.46 197.8 274.68 212 269.79 214C264.9 216 223.53 194.67 199.41 186.33C177.69 178.77 178.59 195.27 186 203.06Z" fill="#F7A9A0"/>
<path d="M368.91 210.12C362.56 218.59 342.79 230.82 336.91 231.94C331.03 233.06 309.09 200.14 311.06 194.29C313.03 188.44 336.63 161.6 347.06 158.91C357.49 156.22 375.5 201.35 368.91 210.12Z" fill="#F7A9A0"/>
<path d="M314.25 189C314.25 189 318 175.75 317.25 163.65C316.59 153.47 314.46 138.43 319.92 137.87C331.13 136.72 336.43 174.23 336.43 174.23C336.43 174.23 336.1 191.16 325.1 193.23C318.17 194.62 314.25 189 314.25 189Z" fill="#F7A9A0"/>
<path d="M331.81 166.28C331.25 171.86 338.15 169.33 338.15 169.33C338.15 169.33 329.15 175.33 330.75 181.33C332.35 187.08 340.57 183.72 341.17 183.49C340.69 183.82 332.52 189.59 334.8 195.42C337.17 201.48 344.8 196.7 345.34 196.42C344.98 196.86 340.41 202.85 343.15 206.89C347.85 213.83 359.97 198.89 366.74 198.41C366.74 198.41 368.79 209.81 368.91 210.13C368.91 210.13 380.73 196.13 379.64 187C379.5 185.673 378.912 184.433 377.972 183.485C377.032 182.538 375.796 181.94 374.47 181.79C374.47 181.79 378.78 177.69 377.14 173.04C376.29 170.65 371.71 169.89 371.71 169.89C371.71 169.89 375.03 166.47 373.31 162.42C371.94 159.19 367.57 158.93 367.57 158.93C367.57 158.93 369.22 154.16 366.76 151.31C361.79 145.54 333 154.33 331.81 166.28Z" fill="#F7A9A0"/>
<path d="M366.88 158.77C366.901 158.77 366.922 158.762 366.937 158.747C366.952 158.732 366.96 158.711 366.96 158.69C366.96 158.669 366.952 158.648 366.937 158.633C366.922 158.618 366.901 158.61 366.88 158.61C356.71 159.19 345.71 162.95 337.77 169.42C337.51 169.64 337.77 170.15 338.07 169.97C347.52 164.86 356.33 161.09 366.88 158.77Z" fill="#263238"/>
<path d="M371.84 169.78C371.95 169.78 371.91 169.57 371.84 169.57C361.36 170.23 349.1 174.8 340.84 183.34C340.56 183.63 340.6 184.18 340.95 183.87C346.81 178.61 362.33 171.82 371.84 169.78Z" fill="#263238"/>
<path d="M345 197.2C353.25 189.32 363.2 184.87 374.07 181.78C374.21 181.78 374.14 181.54 374.01 181.54C368.28 181.61 361.55 184.3 356.5 186.84C351.765 189.116 347.705 192.587 344.72 196.91C344.57 197.08 344.79 197.37 345 197.2Z" fill="#263238"/>
<path d="M338 169.28C337.69 169.53 338.41 169.71 338.1 169.97C336.82 171.09 329.7 178.46 331.45 181.66C332.87 184.23 337.3 184.11 338.98 183.4L343.22 181.61L339.86 184.76C338.362 186.151 337.099 187.775 336.12 189.57C335.617 190.376 335.291 191.279 335.164 192.221C335.036 193.162 335.11 194.119 335.38 195.03C335.641 195.868 336.179 196.591 336.906 197.082C337.633 197.573 338.506 197.801 339.38 197.73C341.342 197.518 343.218 196.809 344.83 195.67L349.38 192.67L346.05 197C345.127 198.194 344.36 199.501 343.77 200.89C343.157 202.185 342.942 203.633 343.15 205.05C343.268 205.683 343.561 206.271 343.996 206.746C344.431 207.222 344.99 207.566 345.61 207.74C347.058 207.921 348.528 207.689 349.85 207.07C352.717 205.759 355.479 204.228 358.11 202.49C359.47 201.66 360.84 200.83 362.25 200.06C363.615 199.206 365.145 198.651 366.74 198.43C365.201 198.815 363.751 199.494 362.47 200.43C361.14 201.29 359.85 202.22 358.56 203.16C355.99 205.113 353.245 206.824 350.36 208.27C348.811 209.091 347.055 209.439 345.31 209.27C344.373 209.07 343.514 208.601 342.84 207.921C342.165 207.241 341.703 206.379 341.51 205.44C341.207 203.688 341.43 201.886 342.15 200.26C342.783 198.701 343.616 197.232 344.63 195.89L345.87 197.2C343.984 198.577 341.771 199.439 339.45 199.7C338.158 199.795 336.872 199.442 335.81 198.7C334.793 197.943 334.026 196.898 333.61 195.7C333.268 194.548 333.174 193.336 333.334 192.145C333.494 190.954 333.905 189.811 334.54 188.79C335.639 186.828 337.059 185.064 338.74 183.57L339.62 184.93C337.45 185.77 332.51 186.44 329.82 182.73C327 177.34 336.2 170.42 338 169.28Z" fill="#263238"/>
<path d="M338.15 169.33C337.007 169.505 335.843 169.505 334.7 169.33C334.241 169.273 333.805 169.095 333.438 168.814C333.07 168.533 332.784 168.159 332.61 167.73C332.364 166.738 332.409 165.697 332.74 164.73C333.05 163.64 333.44 162.52 333.88 161.37C332.922 162.174 332.142 163.168 331.59 164.29C330.919 165.512 330.757 166.949 331.14 168.29C331.421 168.998 331.913 169.602 332.55 170.02C333.154 170.382 333.846 170.572 334.55 170.57C335.852 170.553 337.114 170.119 338.15 169.33Z" fill="#263238"/>
<path d="M305.6 192.91L346.25 238.85C346.25 238.85 285.91 268.39 266.25 263.85C246.59 259.31 206 228.71 188.25 206.85C170.5 184.99 181.25 178.91 205.98 187.09C230.71 195.27 265.67 211.24 269.22 211.09C272.77 210.94 305.6 192.91 305.6 192.91Z" fill="#DC2626"/>
<path d="M346.25 238.85C346.25 238.85 285.91 268.38 266.25 263.85C254.01 261.04 233.67 248.11 215.77 233.46C215.694 233.415 215.624 233.361 215.56 233.3C204.78 224.46 194.9 215.02 188.24 206.81C182.47 199.72 179.72 194.29 179.46 190.47C179.395 189.757 179.446 189.037 179.61 188.34C180.99 182.34 190.88 182.08 205.97 187.07C230.73 195.24 265.66 211.21 269.22 211.07C272.78 210.93 305.59 192.91 305.59 192.91L346.25 238.85Z" fill="#DC2626"/>
<path d="M236.32 234.3C237.079 234.039 237.896 233.994 238.68 234.17C239.108 234.33 239.477 234.615 239.741 234.988C240.005 235.36 240.151 235.803 240.16 236.26C240.153 236.563 240.223 236.863 240.365 237.131C240.507 237.399 240.715 237.626 240.97 237.79C241.25 237.975 241.575 238.082 241.91 238.1C242.29 238.17 242.66 238.21 243.04 238.31C242.274 238.581 241.444 238.612 240.66 238.4C240.245 238.223 239.892 237.927 239.645 237.55C239.398 237.173 239.267 236.731 239.27 236.28C239.261 235.979 239.177 235.684 239.025 235.424C238.873 235.164 238.658 234.946 238.4 234.79C238.097 234.61 237.752 234.514 237.4 234.51C237.07 234.44 236.69 234.4 236.32 234.3Z" fill="white"/>
<path d="M183.17 192C182.407 192.266 181.583 192.3 180.8 192.1C180.465 191.964 180.169 191.748 179.937 191.471C179.705 191.193 179.545 190.864 179.47 190.51C179.405 189.797 179.456 189.077 179.62 188.38C180.036 188.798 180.276 189.36 180.29 189.95C180.286 190.254 180.359 190.553 180.502 190.821C180.646 191.089 180.855 191.315 181.11 191.48C181.388 191.661 181.709 191.768 182.04 191.79C182.42 191.86 182.79 191.9 183.17 192Z" fill="white"/>
<path d="M293.48 218.47C294.245 218.217 295.064 218.176 295.85 218.35C296.278 218.508 296.648 218.793 296.91 219.166C297.173 219.539 297.316 219.984 297.32 220.44C297.318 220.743 297.391 221.042 297.535 221.31C297.678 221.577 297.886 221.804 298.14 221.97C298.421 222.152 298.745 222.256 299.08 222.27C299.45 222.35 299.83 222.39 300.2 222.49C299.437 222.759 298.611 222.79 297.83 222.58C297.413 222.403 297.057 222.106 296.808 221.727C296.559 221.348 296.427 220.904 296.43 220.45C296.425 220.15 296.344 219.857 296.193 219.598C296.043 219.339 295.828 219.122 295.57 218.97C295.269 218.786 294.923 218.689 294.57 218.69C294.23 218.61 293.86 218.57 293.48 218.47Z" fill="white"/>
<path d="M333 235.17C333.761 234.917 334.577 234.876 335.36 235.05C335.788 235.207 336.158 235.49 336.422 235.861C336.686 236.232 336.832 236.675 336.84 237.13C336.833 237.434 336.904 237.736 337.045 238.005C337.187 238.275 337.395 238.503 337.65 238.67C337.931 238.852 338.255 238.956 338.59 238.97C338.97 239.04 339.34 239.09 339.72 239.19C338.953 239.452 338.125 239.483 337.34 239.28C336.924 239.102 336.57 238.805 336.322 238.426C336.075 238.047 335.945 237.603 335.95 237.15C335.941 236.849 335.857 236.554 335.705 236.294C335.553 236.034 335.338 235.816 335.08 235.66C334.776 235.484 334.431 235.391 334.08 235.39C333.79 235.31 333.41 235.27 333 235.17Z" fill="white"/>
<path d="M256.13 246C256.895 245.747 257.714 245.706 258.5 245.88C258.936 246.039 259.313 246.327 259.581 246.706C259.849 247.084 259.995 247.536 260 248C259.994 248.303 260.065 248.602 260.206 248.87C260.348 249.138 260.556 249.365 260.81 249.53C261.091 249.712 261.415 249.816 261.75 249.83C262.13 249.91 262.5 249.95 262.88 250.05C262.114 250.317 261.284 250.349 260.5 250.14C260.084 249.962 259.73 249.665 259.482 249.286C259.235 248.907 259.105 248.463 259.11 248.01C259.102 247.71 259.017 247.417 258.865 247.158C258.713 246.899 258.498 246.683 258.24 246.53C257.939 246.346 257.593 246.249 257.24 246.25C256.88 246.17 256.5 246.12 256.13 246Z" fill="white"/>
<path d="M212.77 191.06C213.535 190.807 214.354 190.766 215.14 190.94C215.567 191.101 215.935 191.386 216.197 191.759C216.459 192.131 216.603 192.574 216.61 193.03C216.608 193.333 216.681 193.632 216.825 193.9C216.968 194.167 217.176 194.394 217.43 194.56C217.71 194.745 218.035 194.852 218.37 194.87C218.74 194.94 219.12 194.98 219.5 195.08C218.734 195.351 217.904 195.382 217.12 195.17C216.705 194.993 216.352 194.697 216.105 194.32C215.858 193.943 215.727 193.501 215.73 193.05C215.723 192.748 215.64 192.453 215.488 192.193C215.335 191.932 215.119 191.714 214.86 191.56C214.557 191.38 214.212 191.284 213.86 191.28C213.53 191.21 213.15 191.16 212.77 191.06Z" fill="white"/>
<path d="M306.46 243.84C306.107 244.562 305.56 245.171 304.88 245.6C304.465 245.79 304.003 245.85 303.554 245.773C303.104 245.697 302.688 245.486 302.36 245.17C302.148 244.953 301.885 244.792 301.595 244.703C301.305 244.614 300.997 244.599 300.7 244.66C300.372 244.73 300.069 244.885 299.82 245.11C299.5 245.32 299.21 245.56 298.87 245.75C299.3 245.14 299.62 244.39 300.49 244.01C300.91 243.841 301.371 243.8 301.814 243.892C302.257 243.985 302.663 244.207 302.98 244.53C303.197 244.738 303.463 244.888 303.753 244.965C304.043 245.042 304.349 245.044 304.64 244.97C304.966 244.886 305.265 244.721 305.51 244.49C305.83 244.27 306.13 244 306.46 243.84Z" fill="white"/>
<path d="M258.94 225C258.586 225.724 258.035 226.334 257.35 226.76C256.937 226.949 256.476 227.009 256.029 226.932C255.581 226.855 255.167 226.646 254.84 226.33C254.628 226.113 254.365 225.952 254.075 225.863C253.785 225.774 253.477 225.759 253.18 225.82C252.852 225.89 252.548 226.045 252.3 226.27C251.98 226.48 251.68 226.72 251.35 226.91C251.78 226.3 252.1 225.55 252.96 225.17C253.38 225.001 253.841 224.96 254.284 225.052C254.727 225.145 255.133 225.367 255.45 225.69C255.669 225.897 255.937 226.046 256.229 226.123C256.521 226.2 256.827 226.203 257.12 226.13C257.446 226.046 257.745 225.881 257.99 225.65C258.31 225.47 258.6 225.24 258.94 225Z" fill="white"/>
<path d="M282.05 235.32C281.694 236.04 281.147 236.649 280.47 237.08C280.055 237.27 279.592 237.329 279.142 237.251C278.692 237.172 278.276 236.959 277.95 236.64C277.739 236.422 277.476 236.262 277.185 236.174C276.894 236.087 276.586 236.075 276.29 236.14C275.961 236.205 275.656 236.361 275.41 236.59C275.09 236.8 274.8 237.04 274.41 237.23C274.84 236.62 275.16 235.87 276.03 235.49C276.449 235.322 276.909 235.281 277.351 235.372C277.794 235.462 278.2 235.681 278.52 236C278.735 236.211 279.001 236.362 279.292 236.439C279.583 236.516 279.889 236.517 280.18 236.44C280.509 236.357 280.812 236.192 281.06 235.96C281.42 235.75 281.72 235.51 282.05 235.32Z" fill="white"/>
<path d="M311.94 201.35C311.58 202.07 311.03 202.679 310.35 203.11C309.935 203.3 309.473 203.36 309.024 203.283C308.574 203.207 308.158 202.996 307.83 202.68C307.619 202.462 307.356 202.301 307.066 202.212C306.775 202.122 306.467 202.108 306.17 202.17C305.844 202.244 305.541 202.399 305.29 202.62C304.98 202.83 304.68 203.07 304.29 203.26C304.73 202.65 305.04 201.9 305.91 201.52C306.33 201.351 306.791 201.31 307.234 201.402C307.677 201.495 308.083 201.717 308.4 202.04C308.617 202.247 308.883 202.397 309.173 202.473C309.464 202.55 309.769 202.553 310.06 202.48C310.409 202.401 310.732 202.236 311 202C311.31 201.78 311.6 201.55 311.94 201.35Z" fill="white"/>
<path d="M197.89 199C198.143 199.765 198.184 200.584 198.01 201.37C197.849 201.797 197.564 202.165 197.191 202.427C196.819 202.689 196.376 202.833 195.92 202.84C195.617 202.838 195.318 202.911 195.05 203.055C194.783 203.198 194.556 203.406 194.39 203.66C194.205 203.94 194.098 204.265 194.08 204.6C194.01 204.97 193.97 205.35 193.87 205.73C193.599 204.964 193.568 204.134 193.78 203.35C193.957 202.935 194.253 202.582 194.63 202.335C195.007 202.088 195.449 201.957 195.9 201.96C196.201 201.951 196.496 201.867 196.756 201.715C197.016 201.563 197.234 201.348 197.39 201.09C197.57 200.787 197.666 200.442 197.67 200.09C197.74 199.73 197.78 199.35 197.89 199Z" fill="white"/>
<path d="M318.52 227.72C318.773 228.485 318.814 229.304 318.64 230.09C318.481 230.517 318.196 230.886 317.823 231.149C317.45 231.411 317.006 231.554 316.55 231.56C316.246 231.554 315.946 231.626 315.678 231.77C315.41 231.913 315.183 232.123 315.02 232.38C314.836 232.656 314.732 232.978 314.72 233.31C314.64 233.69 314.6 234.06 314.5 234.44C314.231 233.677 314.2 232.851 314.41 232.07C314.587 231.653 314.884 231.297 315.263 231.048C315.642 230.799 316.086 230.667 316.54 230.67C316.84 230.663 317.134 230.58 317.393 230.428C317.652 230.275 317.868 230.059 318.02 229.8C318.197 229.514 318.294 229.186 318.3 228.85C318.37 228.47 318.42 228.09 318.52 227.72Z" fill="white"/>
<path d="M284.65 252.59C284.903 253.355 284.944 254.174 284.77 254.96C284.612 255.388 284.327 255.758 283.954 256.02C283.581 256.283 283.136 256.426 282.68 256.43C282.377 256.428 282.078 256.501 281.81 256.645C281.543 256.788 281.316 256.996 281.15 257.25C280.968 257.531 280.864 257.855 280.85 258.19C280.77 258.56 280.73 258.94 280.63 259.32C280.363 258.554 280.331 257.724 280.54 256.94C280.718 256.524 281.015 256.169 281.394 255.922C281.773 255.675 282.217 255.545 282.67 255.55C282.97 255.542 283.263 255.457 283.522 255.305C283.781 255.153 283.997 254.938 284.15 254.68C284.334 254.379 284.431 254.033 284.43 253.68C284.51 253.35 284.55 253 284.65 252.59Z" fill="white"/>
<path d="M278.73 210.57C278.983 211.335 279.024 212.154 278.85 212.94C278.692 213.368 278.407 213.738 278.034 214C277.661 214.263 277.216 214.406 276.76 214.41C276.457 214.408 276.158 214.481 275.89 214.625C275.623 214.768 275.396 214.976 275.23 215.23C275.048 215.511 274.944 215.835 274.93 216.17C274.85 216.54 274.81 216.92 274.71 217.29C274.441 216.527 274.41 215.701 274.62 214.92C274.797 214.503 275.094 214.147 275.473 213.898C275.852 213.649 276.296 213.517 276.75 213.52C277.05 213.515 277.343 213.434 277.602 213.283C277.861 213.133 278.078 212.918 278.23 212.66C278.414 212.359 278.511 212.013 278.51 211.66C278.59 211.32 278.63 211 278.73 210.57Z" fill="white"/>
<path d="M239.63 207.21C239.887 207.974 239.929 208.794 239.75 209.58C239.592 210.006 239.309 210.375 238.938 210.638C238.567 210.9 238.125 211.044 237.67 211.05C237.365 211.048 237.065 211.121 236.796 211.265C236.527 211.408 236.298 211.616 236.13 211.87C235.948 212.151 235.844 212.475 235.83 212.81C235.76 213.18 235.71 213.56 235.61 213.93C235.348 213.166 235.316 212.342 235.52 211.56C235.699 211.143 235.996 210.789 236.374 210.54C236.753 210.291 237.197 210.159 237.65 210.16C237.951 210.156 238.246 210.075 238.507 209.924C238.768 209.774 238.986 209.559 239.14 209.3C239.316 208.996 239.409 208.651 239.41 208.3C239.49 208 239.53 207.59 239.63 207.21Z" fill="white"/>
<path d="M215.78 233.5C215.704 233.455 215.634 233.401 215.57 233.34C215.57 233.21 215.62 233.08 215.66 232.94C215.69 233.14 215.74 233.32 215.78 233.5Z" fill="white"/>
<path d="M211.9 215.9C212.263 215.181 212.812 214.574 213.49 214.14C213.906 213.953 214.368 213.895 214.818 213.973C215.267 214.052 215.682 214.263 216.01 214.58C216.343 214.915 216.793 215.107 217.265 215.117C217.737 215.126 218.194 214.951 218.54 214.63C218.86 214.42 219.16 214.19 219.54 213.99C219.1 214.6 218.79 215.35 217.92 215.73C217.501 215.898 217.041 215.939 216.599 215.848C216.156 215.758 215.75 215.539 215.43 215.22C215.213 215.009 214.945 214.858 214.653 214.781C214.36 214.704 214.053 214.704 213.76 214.78C213.433 214.86 213.132 215.026 212.89 215.26C212.53 215.47 212.24 215.71 211.9 215.9Z" fill="white"/>
<path d="M334 244.25C331.91 241.2 329.19 238.49 326.81 235.66C324.43 232.83 321.81 229.93 319.22 227.1C314.22 221.6 309.08 216.26 303.91 210.94C300.91 207.84 297.78 204.87 294.73 201.8C294.62 201.69 294.43 201.87 294.53 201.99C299.46 207.72 304.31 213.48 309.36 219.1C314.41 224.72 319.36 230.1 324.55 235.38C326.03 236.9 327.55 238.38 329.07 239.86C330.556 241.478 332.132 243.01 333.79 244.45C333.9 244.55 334.08 244.38 334 244.25Z" fill="#263238"/>
<path opacity="0.1" d="M287.91 261.64C279.13 263.94 271.34 265.05 266.26 263.89C254.02 261.08 233.68 248.15 215.78 233.5C215.704 233.455 215.634 233.401 215.57 233.34C204.79 224.5 194.91 215.06 188.25 206.85C182.48 199.76 179.73 194.33 179.47 190.51C179.405 189.797 179.456 189.077 179.62 188.38C180.26 185.62 182.72 184.07 186.62 183.7L287.91 261.64Z" fill="black"/>
<path d="M226.22 262.07L235.69 315.73H122.25C125.48 263.27 155.92 205.89 169.34 189.54C176.06 181.35 189.34 179.6 199.41 186.28C201.8 187.86 229.63 228.92 231.91 234.91C236.45 246.72 226.22 262.07 226.22 262.07Z" fill="#DC2626"/>
<path d="M188.6 222C189.365 221.747 190.184 221.706 190.97 221.88C191.396 222.042 191.763 222.327 192.025 222.7C192.287 223.072 192.432 223.515 192.44 223.97C192.435 224.443 192.615 224.9 192.942 225.242C193.269 225.584 193.717 225.784 194.19 225.8C194.57 225.88 194.94 225.92 195.32 226.02C194.554 226.291 193.724 226.322 192.94 226.11C192.525 225.933 192.172 225.637 191.925 225.26C191.678 224.883 191.547 224.441 191.55 223.99C191.543 223.688 191.46 223.393 191.308 223.133C191.155 222.872 190.939 222.654 190.68 222.5C190.377 222.32 190.032 222.224 189.68 222.22C189.35 222.12 189 222.07 188.6 222Z" fill="white"/>
<path d="M196 269C196.765 268.747 197.584 268.706 198.37 268.88C198.797 269.041 199.165 269.326 199.427 269.699C199.689 270.071 199.833 270.514 199.84 270.97C199.838 271.273 199.911 271.572 200.055 271.84C200.198 272.107 200.406 272.334 200.66 272.5C200.941 272.682 201.265 272.786 201.6 272.8C201.97 272.88 202.35 272.92 202.72 273.02C201.957 273.289 201.131 273.32 200.35 273.11C199.932 272.934 199.576 272.638 199.329 272.258C199.081 271.878 198.953 271.433 198.96 270.98C198.952 270.68 198.867 270.387 198.715 270.128C198.563 269.869 198.348 269.653 198.09 269.5C197.789 269.316 197.443 269.219 197.09 269.22C196.72 269.19 196.35 269.14 196 269Z" fill="white"/>
<path d="M168.17 237.66C168.933 237.399 169.753 237.354 170.54 237.53C170.966 237.692 171.333 237.977 171.595 238.35C171.857 238.722 172.002 239.165 172.01 239.62C172.005 239.924 172.077 240.224 172.221 240.492C172.364 240.76 172.574 240.986 172.83 241.15C173.106 241.337 173.427 241.444 173.76 241.46C174.14 241.53 174.51 241.57 174.89 241.67C174.127 241.939 173.301 241.97 172.52 241.76C172.103 241.584 171.748 241.289 171.499 240.912C171.25 240.535 171.118 240.092 171.12 239.64C171.114 239.338 171.031 239.043 170.879 238.782C170.727 238.521 170.51 238.303 170.25 238.15C169.962 237.978 169.635 237.882 169.3 237.87C168.92 237.8 168.55 237.76 168.17 237.66Z" fill="white"/>
<path d="M153.1 285.86C153.861 285.607 154.677 285.566 155.46 285.74C155.889 285.897 156.259 286.181 156.522 286.555C156.785 286.928 156.927 287.373 156.93 287.83C156.928 288.133 157.001 288.432 157.145 288.7C157.288 288.967 157.496 289.194 157.75 289.36C158.031 289.542 158.355 289.646 158.69 289.66C159.06 289.74 159.44 289.78 159.82 289.88C159.054 290.147 158.224 290.179 157.44 289.97C157.024 289.792 156.67 289.495 156.422 289.116C156.175 288.737 156.045 288.293 156.05 287.84C156.042 287.54 155.957 287.247 155.805 286.988C155.653 286.729 155.438 286.513 155.18 286.36C154.879 286.176 154.533 286.079 154.18 286.08C153.85 286 153.47 286 153.1 285.86Z" fill="white"/>
<path d="M220.93 309.27C221.695 309.017 222.514 308.976 223.3 309.15C223.727 309.311 224.095 309.596 224.357 309.969C224.619 310.341 224.763 310.784 224.77 311.24C224.768 311.543 224.841 311.842 224.985 312.11C225.128 312.377 225.336 312.604 225.59 312.77C225.871 312.952 226.195 313.056 226.53 313.07C226.9 313.15 227.28 313.19 227.66 313.29C226.894 313.557 226.064 313.589 225.28 313.38C224.864 313.202 224.51 312.905 224.262 312.526C224.015 312.147 223.885 311.703 223.89 311.25C223.882 310.95 223.797 310.657 223.645 310.398C223.493 310.139 223.278 309.923 223.02 309.77C222.719 309.586 222.373 309.489 222.02 309.49C221.69 309.42 221.31 309.37 220.93 309.27Z" fill="white"/>
<path d="M128.23 292.14C127.463 292.407 126.634 292.439 125.85 292.23C125.684 292.167 125.529 292.079 125.39 291.97C125.44 291.64 125.51 291.32 125.58 290.97C125.718 291.225 125.917 291.441 126.16 291.6C126.441 291.782 126.765 291.886 127.1 291.9C127.48 292 127.85 292 128.23 292.14Z" fill="white"/>
<path d="M176.45 188C177.213 187.739 178.033 187.694 178.82 187.87C179.246 188.032 179.613 188.317 179.875 188.69C180.137 189.062 180.282 189.505 180.29 189.96C180.283 190.263 180.353 190.563 180.495 190.831C180.637 191.099 180.845 191.326 181.1 191.49C181.38 191.675 181.705 191.782 182.04 191.8C182.42 191.87 182.79 191.91 183.17 192.01C182.407 192.279 181.581 192.31 180.8 192.1C180.383 191.925 180.027 191.631 179.777 191.253C179.528 190.876 179.397 190.432 179.4 189.98C179.394 189.678 179.311 189.383 179.159 189.122C179.007 188.861 178.79 188.644 178.53 188.49C178.227 188.31 177.882 188.214 177.53 188.21C177.2 188.13 176.82 188.09 176.45 188Z" fill="white"/>
<path d="M216.77 256C216.414 256.72 215.867 257.329 215.19 257.76C214.775 257.95 214.312 258.009 213.862 257.931C213.412 257.852 212.996 257.639 212.67 257.32C212.459 257.102 212.196 256.942 211.905 256.854C211.614 256.767 211.306 256.755 211.01 256.82C210.681 256.885 210.376 257.041 210.13 257.27C209.81 257.48 209.52 257.72 209.18 257.91C209.61 257.3 209.93 256.55 210.8 256.17C211.219 256.002 211.679 255.961 212.121 256.052C212.564 256.142 212.97 256.361 213.29 256.68C213.505 256.891 213.771 257.042 214.062 257.119C214.353 257.196 214.659 257.197 214.95 257.12C215.277 257.04 215.578 256.874 215.82 256.64C216.14 256.39 216.44 256.15 216.77 256Z" fill="white"/>
<path d="M143.86 240.94C143.497 241.659 142.948 242.266 142.27 242.7C141.987 242.826 141.68 242.892 141.37 242.892C141.06 242.892 140.753 242.826 140.47 242.7C140.58 242.43 140.68 242.16 140.8 241.89C141.181 242.079 141.615 242.132 142.03 242.04C142.359 241.95 142.661 241.782 142.91 241.55C143.23 241.36 143.53 241.13 143.86 240.94Z" fill="white"/>
<path d="M143.86 273.31C143.503 274.033 142.953 274.642 142.27 275.07C141.857 275.259 141.396 275.319 140.949 275.242C140.501 275.165 140.087 274.956 139.76 274.64C139.548 274.423 139.285 274.262 138.995 274.173C138.705 274.084 138.397 274.069 138.1 274.13C137.772 274.2 137.468 274.355 137.22 274.58C136.9 274.79 136.6 275.03 136.27 275.22C136.7 274.61 137.02 273.86 137.88 273.48C138.3 273.311 138.761 273.27 139.204 273.362C139.647 273.455 140.053 273.677 140.37 274C140.589 274.207 140.857 274.356 141.149 274.433C141.441 274.51 141.747 274.513 142.04 274.44C142.367 274.353 142.666 274.184 142.91 273.95C143.23 273.74 143.52 273.51 143.86 273.31Z" fill="white"/>
<path d="M175.31 306C174.95 306.72 174.4 307.329 173.72 307.76C173.305 307.95 172.842 308.009 172.392 307.931C171.942 307.852 171.526 307.639 171.2 307.32C170.989 307.102 170.726 306.942 170.435 306.854C170.144 306.767 169.836 306.755 169.54 306.82C169.211 306.888 168.907 307.043 168.66 307.27C168.35 307.48 168.05 307.72 167.71 307.91C168.15 307.3 168.46 306.55 169.33 306.17C169.749 306.002 170.209 305.961 170.651 306.052C171.094 306.142 171.5 306.361 171.82 306.68C172.036 306.89 172.302 307.041 172.592 307.118C172.883 307.195 173.189 307.196 173.48 307.12C173.809 307.037 174.112 306.872 174.36 306.64C174.67 306.45 175 306.21 175.31 306Z" fill="white"/>
<path d="M177.67 266.33C177.307 267.049 176.758 267.656 176.08 268.09C175.666 268.278 175.205 268.336 174.757 268.258C174.309 268.179 173.896 267.967 173.57 267.65C173.234 267.318 172.784 267.126 172.312 267.115C171.84 267.104 171.381 267.274 171.03 267.59C170.71 267.81 170.41 268.04 170.08 268.24C170.51 267.63 170.82 266.88 171.69 266.5C172.109 266.327 172.569 266.283 173.013 266.374C173.457 266.465 173.863 266.686 174.18 267.01C174.399 267.217 174.667 267.366 174.959 267.443C175.251 267.52 175.557 267.523 175.85 267.45C176.176 267.366 176.475 267.201 176.72 266.97C177 266.75 177.33 266.52 177.67 266.33Z" fill="white"/>
<path d="M204.33 299.3C203.964 300.016 203.416 300.623 202.74 301.06C202.325 301.25 201.862 301.309 201.412 301.231C200.962 301.152 200.546 300.939 200.22 300.62C200.009 300.402 199.746 300.242 199.455 300.154C199.164 300.067 198.856 300.055 198.56 300.12C198.231 300.185 197.926 300.341 197.68 300.57C197.36 300.78 197.07 301.01 196.68 301.21C197.11 300.6 197.43 299.85 198.3 299.47C198.719 299.302 199.179 299.261 199.621 299.352C200.064 299.442 200.47 299.661 200.79 299.98C201.005 300.191 201.271 300.342 201.562 300.419C201.853 300.496 202.159 300.497 202.45 300.42C202.779 300.337 203.082 300.172 203.33 299.94C203.69 299.73 204 299.49 204.33 299.3Z" fill="white"/>
<path d="M197.89 199C198.143 199.765 198.184 200.584 198.01 201.37C197.849 201.797 197.564 202.165 197.191 202.427C196.819 202.689 196.376 202.833 195.92 202.84C195.617 202.838 195.318 202.911 195.05 203.055C194.783 203.198 194.556 203.406 194.39 203.66C194.205 203.94 194.098 204.265 194.08 204.6C194.01 204.97 193.97 205.35 193.87 205.73C193.599 204.964 193.568 204.134 193.78 203.35C193.957 202.935 194.253 202.582 194.63 202.335C195.007 202.088 195.449 201.957 195.9 201.96C196.201 201.951 196.496 201.867 196.756 201.715C197.016 201.563 197.234 201.348 197.39 201.09C197.57 200.787 197.666 200.442 197.67 200.09C197.74 199.73 197.78 199.35 197.89 199Z" fill="white"/>
<path d="M220 282.9C220.261 283.663 220.306 284.483 220.13 285.27C219.968 285.696 219.683 286.063 219.31 286.325C218.938 286.587 218.495 286.732 218.04 286.74C217.737 286.737 217.437 286.81 217.17 286.953C216.902 287.097 216.675 287.305 216.51 287.56C216.325 287.84 216.218 288.165 216.2 288.5C216.13 288.87 216.09 289.25 215.99 289.62C215.721 288.857 215.69 288.031 215.9 287.25C216.075 286.833 216.369 286.477 216.747 286.227C217.124 285.978 217.568 285.847 218.02 285.85C218.321 285.846 218.616 285.765 218.877 285.614C219.138 285.464 219.356 285.249 219.51 284.99C219.69 284.687 219.786 284.342 219.79 283.99C219.82 283.65 219.86 283.28 220 282.9Z" fill="white"/>
<path d="M215.66 232.94C215.917 233.704 215.959 234.524 215.78 235.31C215.621 235.736 215.338 236.104 214.967 236.366C214.596 236.628 214.154 236.772 213.7 236.78C213.395 236.776 213.094 236.849 212.825 236.992C212.555 237.136 212.327 237.345 212.16 237.6C211.976 237.88 211.873 238.205 211.86 238.54C211.79 238.91 211.74 239.29 211.64 239.66C211.378 238.896 211.346 238.072 211.55 237.29C211.727 236.873 212.024 236.517 212.403 236.268C212.782 236.019 213.226 235.887 213.68 235.89C213.982 235.884 214.277 235.801 214.538 235.649C214.799 235.497 215.016 235.28 215.17 235.02C215.338 234.731 215.431 234.404 215.44 234.07C215.52 233.69 215.56 233.32 215.66 232.94Z" fill="white"/>
<path d="M192.86 245.77C193.116 246.534 193.161 247.353 192.99 248.14C192.828 248.566 192.543 248.933 192.17 249.195C191.798 249.457 191.355 249.602 190.9 249.61C190.426 249.612 189.971 249.796 189.629 250.123C189.287 250.451 189.083 250.897 189.06 251.37C188.99 251.74 188.94 252.12 188.84 252.49C188.574 251.726 188.546 250.9 188.76 250.12C188.935 249.703 189.229 249.347 189.607 249.097C189.984 248.848 190.428 248.717 190.88 248.72C191.181 248.716 191.476 248.635 191.737 248.484C191.998 248.334 192.216 248.119 192.37 247.86C192.543 247.554 192.639 247.211 192.65 246.86C192.72 246.52 192.76 246.15 192.86 245.77Z" fill="white"/>
<path d="M142.07 300.28C142.323 301.045 142.364 301.864 142.19 302.65C142.031 303.077 141.746 303.446 141.373 303.709C141 303.971 140.556 304.114 140.1 304.12C139.796 304.116 139.497 304.189 139.229 304.332C138.961 304.476 138.735 304.685 138.57 304.94C138.388 305.217 138.284 305.539 138.27 305.87C138.2 306.25 138.15 306.63 138.05 307C137.788 306.236 137.756 305.412 137.96 304.63C138.137 304.213 138.434 303.857 138.813 303.608C139.192 303.359 139.636 303.227 140.09 303.23C140.392 303.224 140.687 303.141 140.948 302.989C141.209 302.837 141.426 302.62 141.58 302.36C141.748 302.071 141.841 301.744 141.85 301.41C141.93 301 142 300.66 142.07 300.28Z" fill="white"/>
<path d="M158.46 221.68C158.716 222.444 158.761 223.263 158.59 224.05C158.428 224.476 158.143 224.843 157.77 225.105C157.398 225.367 156.955 225.512 156.5 225.52C156.026 225.517 155.57 225.698 155.227 226.024C154.884 226.35 154.681 226.797 154.66 227.27C154.59 227.65 154.54 228.02 154.44 228.4C154.174 227.636 154.147 226.81 154.36 226.03C154.535 225.613 154.829 225.257 155.207 225.007C155.584 224.758 156.028 224.627 156.48 224.63C156.782 224.624 157.077 224.541 157.338 224.389C157.599 224.237 157.816 224.02 157.97 223.76C158.138 223.471 158.231 223.144 158.24 222.81C158.32 222.43 158.36 222.05 158.46 221.68Z" fill="white"/>
<path d="M158.46 254.57C158.716 255.334 158.761 256.153 158.59 256.94C158.428 257.366 158.143 257.733 157.77 257.995C157.398 258.257 156.955 258.402 156.5 258.41C156.026 258.407 155.57 258.588 155.227 258.914C154.884 259.24 154.681 259.687 154.66 260.16C154.59 260.54 154.54 260.91 154.44 261.29C154.176 260.523 154.148 259.693 154.36 258.91C154.535 258.494 154.83 258.139 155.208 257.891C155.586 257.644 156.028 257.515 156.48 257.52C156.781 257.511 157.076 257.427 157.336 257.275C157.596 257.123 157.814 256.908 157.97 256.65C158.146 256.346 158.239 256.001 158.24 255.65C158.32 255.32 158.36 254.94 158.46 254.57Z" fill="white"/>
<path d="M184.9 282.9C185.153 283.665 185.194 284.484 185.02 285.27C184.861 285.697 184.576 286.066 184.203 286.329C183.83 286.591 183.386 286.734 182.93 286.74C182.627 286.738 182.328 286.811 182.06 286.955C181.793 287.098 181.566 287.306 181.4 287.56C181.218 287.841 181.114 288.165 181.1 288.5C181.02 288.87 180.98 289.25 180.88 289.62C180.611 288.857 180.58 288.031 180.79 287.25C180.967 286.833 181.264 286.477 181.643 286.228C182.022 285.979 182.466 285.847 182.92 285.85C183.22 285.845 183.513 285.764 183.772 285.613C184.031 285.463 184.248 285.248 184.4 284.99C184.582 284.688 184.679 284.343 184.68 283.99C184.75 283.65 184.8 283.28 184.9 282.9Z" fill="white"/>
<path d="M211.9 215.9C212.263 215.181 212.812 214.574 213.49 214.14C213.906 213.953 214.368 213.895 214.818 213.973C215.267 214.052 215.682 214.263 216.01 214.58C216.343 214.915 216.793 215.107 217.265 215.117C217.737 215.126 218.194 214.951 218.54 214.63C218.86 214.42 219.16 214.19 219.54 213.99C219.1 214.6 218.79 215.35 217.92 215.73C217.501 215.898 217.041 215.939 216.599 215.848C216.156 215.758 215.75 215.539 215.43 215.22C215.213 215.009 214.945 214.858 214.653 214.781C214.36 214.704 214.053 214.704 213.76 214.78C213.433 214.86 213.132 215.026 212.89 215.26C212.53 215.47 212.24 215.71 211.9 215.9Z" fill="white"/>
<path d="M171.51 212.54C171.87 211.819 172.42 211.211 173.1 210.78C173.514 210.59 173.975 210.53 174.424 210.608C174.872 210.687 175.286 210.9 175.61 211.22C175.821 211.438 176.084 211.598 176.375 211.686C176.666 211.773 176.974 211.785 177.27 211.72C177.599 211.655 177.904 211.499 178.15 211.27C178.47 211.06 178.77 210.83 179.1 210.63C178.67 211.24 178.35 211.99 177.49 212.37C177.071 212.538 176.611 212.579 176.169 212.488C175.726 212.398 175.32 212.179 175 211.86C174.782 211.65 174.515 211.5 174.222 211.423C173.93 211.345 173.623 211.345 173.33 211.42C173.003 211.5 172.702 211.666 172.46 211.9C172.14 212.11 171.85 212.35 171.51 212.54Z" fill="white"/>
<path d="M163.68 194.67C148.6 207.12 94.42 253.23 97.68 269.6C100.96 286.18 113.51 299.6 123.16 290.3C131.16 282.67 166.48 226.04 172.89 210.9C179 196.48 178.5 182.43 163.68 194.67Z" fill="#F7A9A0"/>
<path d="M96.3 265C96.3 276.48 103.99 298.12 118.92 294.09C128.7 291.46 169.26 224.6 175.8 208.74C183.37 190.37 176.8 183.15 162.8 193.98C148.8 204.81 96.32 248.61 96.3 265Z" fill="#DC2626"/>
<path d="M138.42 216.93C137.657 217.199 136.831 217.23 136.05 217.02C135.931 216.972 135.817 216.912 135.71 216.84C135.906 216.684 136.093 216.517 136.27 216.34L136.36 216.41C136.638 216.591 136.959 216.694 137.29 216.71C137.67 216.79 138.05 216.84 138.42 216.93Z" fill="white"/>
<path d="M120.29 255.92C121.055 255.667 121.874 255.626 122.66 255.8C123.088 255.958 123.458 256.243 123.72 256.616C123.983 256.989 124.126 257.434 124.13 257.89C124.128 258.193 124.201 258.492 124.345 258.76C124.488 259.027 124.696 259.254 124.95 259.42C125.231 259.602 125.555 259.706 125.89 259.72C126.26 259.8 126.64 259.84 127.01 259.94C126.247 260.209 125.421 260.24 124.64 260.03C124.223 259.853 123.867 259.556 123.618 259.177C123.369 258.798 123.237 258.353 123.24 257.9C123.235 257.6 123.154 257.307 123.003 257.048C122.853 256.789 122.638 256.572 122.38 256.42C122.078 256.238 121.733 256.141 121.38 256.14C121 256.06 120.67 256 120.29 255.92Z" fill="white"/>
<path d="M125.08 289.09C124.86 289.33 124.64 289.57 124.42 289.79C124.371 289.547 124.271 289.316 124.128 289.113C123.986 288.91 123.802 288.739 123.59 288.61C123.286 288.434 122.941 288.341 122.59 288.34C122.22 288.27 121.84 288.22 121.46 288.12C122.225 287.868 123.044 287.826 123.83 288C124.101 288.088 124.351 288.23 124.566 288.418C124.781 288.605 124.956 288.834 125.08 289.09Z" fill="white"/>
<path d="M143.86 240.94C143.5 241.661 142.95 242.269 142.27 242.7C141.856 242.89 141.395 242.95 140.946 242.872C140.498 242.793 140.084 242.58 139.76 242.26C139.549 242.042 139.286 241.882 138.995 241.794C138.704 241.707 138.396 241.695 138.1 241.76C137.771 241.825 137.466 241.981 137.22 242.21C136.9 242.42 136.6 242.65 136.27 242.85C136.7 242.24 137.02 241.49 137.88 241.11C138.299 240.942 138.759 240.901 139.201 240.992C139.644 241.082 140.05 241.301 140.37 241.62C140.588 241.83 140.855 241.98 141.148 242.057C141.44 242.135 141.747 242.135 142.04 242.06C142.367 241.98 142.668 241.814 142.91 241.58C143.23 241.37 143.52 241.13 143.86 240.94Z" fill="white"/>
<path d="M160.72 197C160.973 197.761 161.014 198.577 160.84 199.36C160.685 199.788 160.402 200.158 160.031 200.421C159.659 200.684 159.215 200.827 158.76 200.83C158.455 200.827 158.154 200.9 157.885 201.043C157.616 201.187 157.387 201.395 157.22 201.65C157.038 201.931 156.934 202.255 156.92 202.59C156.85 202.97 156.8 203.34 156.7 203.72C156.438 202.953 156.407 202.125 156.61 201.34C156.788 200.924 157.085 200.569 157.464 200.322C157.843 200.075 158.287 199.945 158.74 199.95C159.041 199.941 159.336 199.857 159.596 199.705C159.856 199.553 160.074 199.338 160.23 199.08C160.406 198.776 160.499 198.431 160.5 198.08C160.58 197.75 160.62 197.37 160.72 197Z" fill="white"/>
<path d="M158.46 221.68C158.716 222.444 158.761 223.263 158.59 224.05C158.428 224.476 158.143 224.843 157.77 225.105C157.398 225.367 156.955 225.512 156.5 225.52C156.026 225.517 155.57 225.698 155.227 226.024C154.884 226.35 154.681 226.797 154.66 227.27C154.59 227.65 154.54 228.02 154.44 228.4C154.174 227.636 154.147 226.81 154.36 226.03C154.535 225.613 154.829 225.257 155.207 225.007C155.584 224.758 156.028 224.627 156.48 224.63C156.782 224.624 157.077 224.541 157.338 224.389C157.599 224.237 157.816 224.02 157.97 223.76C158.138 223.471 158.231 223.144 158.24 222.81C158.32 222.43 158.36 222.05 158.46 221.68Z" fill="white"/>
<path d="M111.08 274.29C111.333 275.055 111.374 275.874 111.2 276.66C111.042 277.086 110.759 277.455 110.388 277.718C110.017 277.98 109.575 278.124 109.12 278.13C108.815 278.127 108.514 278.2 108.245 278.343C107.976 278.487 107.747 278.695 107.58 278.95C107.398 279.231 107.294 279.555 107.28 279.89C107.21 280.26 107.16 280.64 107.06 281.02C106.798 280.252 106.767 279.425 106.97 278.64C107.148 278.224 107.445 277.87 107.824 277.622C108.203 277.375 108.647 277.245 109.1 277.25C109.401 277.241 109.696 277.157 109.956 277.005C110.216 276.853 110.434 276.638 110.59 276.38C110.766 276.076 110.859 275.731 110.86 275.38C110.94 275.05 111 274.67 111.08 274.29Z" fill="white"/>
<path d="M174.92 210.76C174.81 211.01 174.68 211.28 174.55 211.55C174.172 211.362 173.739 211.316 173.33 211.42C173.003 211.5 172.702 211.666 172.46 211.9C172.14 212.11 171.85 212.35 171.46 212.54C171.91 211.92 172.2 211.2 173.05 210.78C173.341 210.638 173.659 210.563 173.983 210.559C174.306 210.556 174.626 210.624 174.92 210.76Z" fill="white"/>
<path d="M166.15 231.87C164.8 233.75 163.31 235.53 161.87 237.34L160.87 238.64C161.77 236.913 162.65 235.173 163.51 233.42C164.824 230.908 166.003 228.328 167.04 225.69C167.11 225.52 166.85 225.44 166.76 225.58C165.41 227.7 164.33 229.96 163.05 232.12C161.77 234.28 160.54 236.47 159.32 238.66C156.86 243.03 154.32 247.38 151.73 251.66C146.52 260.22 140.97 268.59 135.23 276.81C133.62 279.11 132.03 281.43 130.34 283.68C128.65 285.93 127.06 288.37 125.34 290.63C125.28 290.71 125.39 290.82 125.46 290.74C127.08 288.74 128.75 286.87 130.4 284.94C132.05 283.01 133.45 281 135 279C138.09 275 141 270.92 143.86 266.77C149.561 258.418 154.838 249.783 159.67 240.9L160.02 240.22C160.84 239.35 161.64 238.45 162.4 237.51C163.83 235.73 165.07 233.82 166.32 231.91C166.36 231.86 166.21 231.78 166.15 231.87Z" fill="#263238"/>
<path d="M197.32 186.22C197.32 186.22 200.63 199.78 196.68 201.65C189.31 205.14 176.14 194.3 175.28 192.36C175.07 191.86 173.97 178.83 173.15 168.71C172.61 162.19 172.15 156.87 172.15 156.87L198 167.12L197.42 184.94L197.32 186.22Z" fill="#F7A9A0"/>
<path d="M198 167.12L197.42 184.94C192.47 184.087 187.754 182.201 183.581 179.405C179.408 176.608 175.871 172.964 173.2 168.71C172.66 162.19 172.2 156.87 172.2 156.87L175.43 158.03L198 167.12Z" fill="#263238"/>
<path d="M202.74 146.86C203.13 154.15 208.63 159.77 215.02 159.42C221.41 159.07 226.27 152.89 225.88 145.61C225.49 138.33 219.98 132.7 213.59 133.05C207.2 133.4 202.34 139.58 202.74 146.86Z" fill="#455A64"/>
<path d="M199 147.53C199.44 155.63 205.56 161.88 212.67 161.53C219.78 161.18 225.18 154.26 224.75 146.16C224.32 138.06 218.19 131.8 211.08 132.16C203.97 132.52 198.58 139.42 199 147.53Z" fill="#C7C7C7"/>
<path d="M220.72 141.56C223.13 172.76 204.72 177.73 197.99 178.24C191.88 178.71 170.99 179.52 165.39 148.73C159.79 117.94 173.51 106.96 187.39 105.15C201.27 103.34 218.3 110.35 220.72 141.56Z" fill="#F7A9A0"/>
<path d="M211 136C210.284 135.909 209.573 135.782 208.87 135.62C208.103 135.586 207.369 135.302 206.78 134.81C206.629 134.615 206.547 134.376 206.547 134.13C206.547 133.884 206.629 133.645 206.78 133.45C207.124 133.099 207.556 132.847 208.031 132.72C208.506 132.593 209.007 132.597 209.48 132.73C210.482 132.847 211.405 133.331 212.07 134.09C212.212 134.275 212.298 134.497 212.315 134.73C212.332 134.962 212.28 135.195 212.166 135.398C212.052 135.602 211.881 135.768 211.673 135.874C211.466 135.981 211.232 136.025 211 136Z" fill="#263238"/>
<path d="M189.59 137.67C190.296 137.515 190.993 137.325 191.68 137.1C192.438 136.993 193.14 136.642 193.68 136.1C193.819 135.898 193.886 135.656 193.872 135.411C193.857 135.167 193.762 134.934 193.6 134.75C193.227 134.43 192.775 134.216 192.292 134.13C191.808 134.044 191.31 134.089 190.85 134.26C189.862 134.463 188.985 135.026 188.39 135.84C188.261 136.034 188.192 136.262 188.191 136.495C188.191 136.728 188.258 136.956 188.386 137.151C188.514 137.346 188.696 137.499 188.91 137.591C189.124 137.683 189.361 137.711 189.59 137.67Z" fill="#263238"/>
<path d="M195 145.27C195 145.19 194.85 145.39 194.86 145.47C195.11 147.59 195.05 150.06 193.19 150.93C193.13 150.93 193.19 151.06 193.19 151.05C195.53 150.51 195.58 147.23 195 145.27Z" fill="#263238"/>
<path d="M192.91 143.22C189.47 143.22 189.81 150.13 193 150.09C196.19 150.05 195.79 143.18 192.91 143.22Z" fill="#263238"/>
<path d="M191.58 143.65C191 144.07 190.44 144.78 189.72 144.89C189 145 188.22 144.33 187.64 143.66C187.58 143.59 187.53 143.66 187.53 143.75C187.53 145.06 188.15 146.39 189.53 146.52C190.91 146.65 191.69 145.42 191.95 144.08C192 143.83 191.81 143.48 191.58 143.65Z" fill="#263238"/>
<path d="M207.41 143.88C207.41 143.79 207.58 143.97 207.58 144.06C207.58 146.19 207.98 148.63 209.94 149.25C210 149.25 210 149.38 209.94 149.37C207.56 149.14 207.09 145.9 207.41 143.88Z" fill="#263238"/>
<path d="M209.22 141.57C212.63 141.17 213.22 148.03 210.02 148.4C206.82 148.77 206.36 141.91 209.22 141.57Z" fill="#263238"/>
<path d="M210.68 141.91C211.25 142.23 211.84 142.85 212.49 142.84C213.14 142.83 213.74 142.04 214.17 141.29C214.17 141.21 214.27 141.29 214.28 141.36C214.42 142.66 214.1 144.06 212.86 144.42C211.62 144.78 210.79 143.68 210.38 142.42C210.3 142.16 210.45 141.78 210.68 141.91Z" fill="#263238"/>
<path d="M196.94 161.76C197.45 162.26 197.94 162.94 198.74 163C199.532 162.98 200.312 162.796 201.03 162.46C201.045 162.448 201.063 162.442 201.082 162.444C201.101 162.446 201.118 162.455 201.13 162.47C201.142 162.485 201.148 162.503 201.146 162.522C201.144 162.541 201.135 162.558 201.12 162.57C200.817 162.99 200.406 163.319 199.93 163.523C199.455 163.728 198.933 163.799 198.42 163.73C197.984 163.623 197.591 163.388 197.291 163.054C196.992 162.721 196.8 162.304 196.74 161.86C196.7 161.73 196.87 161.69 196.94 161.76Z" fill="#263238"/>
<path d="M205.36 153.53C205.36 153.53 206 156.68 206.09 158.18C206.09 158.32 205.74 158.41 205.23 158.47C205.23 158.47 205.23 158.47 205.17 158.47C203.898 158.785 202.564 158.743 201.314 158.348C200.065 157.952 198.949 157.22 198.09 156.23C197.98 156.09 198.16 155.93 198.3 156.01C200.292 157.198 202.613 157.713 204.92 157.48C205 157.06 203.66 152.12 203.92 152.09C205.09 152.123 206.25 152.311 207.37 152.65C206.25 146.05 204.07 139.65 203.04 133.1C203.037 133.053 203.05 133.006 203.077 132.968C203.104 132.929 203.143 132.901 203.188 132.887C203.233 132.873 203.281 132.875 203.325 132.892C203.369 132.908 203.406 132.94 203.43 132.98C206.18 139.49 207.65 147.05 208.99 153.84C209.13 154.68 206 153.75 205.36 153.53Z" fill="#263238"/>
<path d="M204.19 157.72C203.498 158.881 202.521 159.845 201.35 160.52C200.7 160.863 199.959 160.996 199.23 160.9C197.63 160.68 197.43 159.27 197.57 158.02C197.649 157.357 197.806 156.706 198.04 156.08C199.861 157.271 202.017 157.846 204.19 157.72Z" fill="#263238"/>
<path d="M201.35 160.52C200.7 160.863 199.959 160.996 199.23 160.9C197.63 160.68 197.43 159.27 197.57 158.02C199.24 158 201 158.92 201.35 160.52Z" fill="#F392B9"/>
<path d="M165.85 145.93C169.26 145.93 178.58 137.01 179.69 120.62C179.69 120.62 177.69 135.27 176.46 137.37C175.23 139.47 181.67 132.37 182.75 119.15C182.75 119.15 189.81 124.81 195.96 126.88C202.11 128.95 205.96 129.09 206.42 128.66C206.88 128.23 197.84 124.87 195.5 121.87C195.5 121.87 211.73 130.45 219.36 131.42C220.24 131.53 218.21 117.95 206.76 109.61C195.31 101.27 180.14 104.09 174.85 108.7C174.85 108.7 168.85 109.24 162 117.7C155.15 126.16 162.18 146 165.85 145.93Z" fill="#263238"/>
<path d="M170.54 150.75C170.54 150.75 163.8 140.91 159.34 143.31C154.88 145.71 159.89 159.91 165.08 161.9C165.728 162.2 166.43 162.365 167.143 162.387C167.857 162.409 168.567 162.286 169.232 162.026C169.897 161.767 170.503 161.376 171.013 160.876C171.523 160.377 171.927 159.779 172.2 159.12L170.54 150.75Z" fill="#F7A9A0"/>
<path d="M160.88 147.35C160.867 147.355 160.856 147.364 160.848 147.376C160.84 147.387 160.836 147.401 160.836 147.415C160.836 147.429 160.84 147.443 160.848 147.454C160.856 147.466 160.867 147.475 160.88 147.48C164.52 149 166.41 152.4 167.72 155.92C166.65 154.56 165.17 153.8 163.35 155.08C163.26 155.15 163.35 155.3 163.45 155.27C164.093 155.074 164.781 155.082 165.42 155.291C166.059 155.501 166.617 155.902 167.02 156.44C167.688 157.349 168.255 158.328 168.71 159.36C168.88 159.69 169.47 159.52 169.35 159.14V159.06C169.43 154.4 165.87 147.86 160.88 147.35Z" fill="#263238"/>
<path d="M168 160.54C167.994 160.758 167.923 160.969 167.797 161.147C167.671 161.324 167.495 161.46 167.291 161.538C167.087 161.615 166.865 161.63 166.653 161.581C166.44 161.532 166.247 161.421 166.098 161.262C165.949 161.103 165.851 160.903 165.815 160.688C165.78 160.473 165.809 160.252 165.899 160.054C165.989 159.856 166.136 159.689 166.322 159.574C166.507 159.459 166.722 159.402 166.94 159.41C167.23 159.42 167.504 159.545 167.703 159.757C167.901 159.968 168.008 160.25 168 160.54Z" fill="white"/>
<path d="M165 158.54C164.996 158.631 164.974 158.72 164.936 158.802C164.898 158.884 164.844 158.958 164.777 159.019C164.71 159.081 164.632 159.128 164.546 159.159C164.461 159.19 164.371 159.204 164.28 159.2C164.19 159.197 164.101 159.177 164.019 159.14C163.937 159.103 163.863 159.049 163.801 158.983C163.74 158.917 163.692 158.84 163.661 158.755C163.63 158.67 163.616 158.58 163.62 158.49C163.623 158.399 163.643 158.31 163.68 158.227C163.717 158.145 163.77 158.07 163.836 158.008C163.902 157.946 163.98 157.897 164.064 157.865C164.149 157.833 164.239 157.817 164.33 157.82C164.513 157.83 164.685 157.911 164.81 158.045C164.935 158.179 165.003 158.357 165 158.54Z" fill="white"/>
<path d="M159.65 149.51L157.5 149.96C157.444 149.972 157.387 149.972 157.331 149.961C157.275 149.95 157.221 149.928 157.174 149.897C157.126 149.865 157.086 149.824 157.054 149.777C157.023 149.729 157.001 149.676 156.99 149.62C156.966 149.509 156.988 149.392 157.05 149.297C157.111 149.201 157.209 149.134 157.32 149.11L159.47 148.66C159.526 148.648 159.583 148.648 159.639 148.659C159.695 148.67 159.749 148.692 159.796 148.723C159.844 148.755 159.884 148.796 159.916 148.843C159.947 148.891 159.969 148.944 159.98 149C160.004 149.111 159.982 149.228 159.92 149.323C159.859 149.419 159.761 149.486 159.65 149.51Z" fill="#DC2626"/>
<path d="M159.41 148.13L157.22 148.26C157.163 148.264 157.105 148.257 157.051 148.238C156.996 148.22 156.946 148.19 156.903 148.152C156.861 148.114 156.826 148.067 156.801 148.016C156.777 147.964 156.763 147.907 156.76 147.85C156.754 147.735 156.794 147.622 156.871 147.536C156.948 147.45 157.055 147.398 157.17 147.39L159.35 147.26C159.465 147.252 159.579 147.289 159.667 147.364C159.755 147.439 159.81 147.545 159.82 147.66C159.826 147.776 159.786 147.89 159.71 147.978C159.633 148.065 159.526 148.12 159.41 148.13Z" fill="#DC2626"/>
<path d="M164.07 143.24C164.07 143.24 161.43 127.5 165.2 118.24C169.4 108 189.45 99.46 205.14 108.46C205.14 108.46 181.3 103.72 171.54 118.32C167.43 124.47 169.4 143.08 169.4 143.08L164.07 143.24Z" fill="#C7C7C7"/>
<path d="M168.49 165.771C175.566 164.994 180.586 157.827 179.701 149.763C178.817 141.698 172.363 135.79 165.286 136.566C158.21 137.342 153.19 144.509 154.075 152.574C154.96 160.639 161.413 166.547 168.49 165.771Z" fill="#C7C7C7"/>
<path d="M175.92 149.72C176.72 156.97 172.21 163.41 165.85 164.11C159.49 164.81 153.68 159.5 152.85 152.25C152.02 145 156.57 138.55 162.93 137.86C169.29 137.17 175.13 142.47 175.92 149.72Z" fill="#455A64"/>
<path d="M192.86 171.03L182.43 169.17L172.59 161.48L173.78 159.96L183.24 167.36L193.19 169.13L192.86 171.03Z" fill="#C7C7C7"/>
<path d="M191.49 169.76C191.77 166.76 199.74 165.99 199.32 170.49C198.9 174.99 191.21 172.74 191.49 169.76Z" fill="#37474F"/>
<path d="M197.4 185.83L194.77 200.43L174.49 186.83L170.88 193.29C170.88 193.29 192.88 217 192.71 215.75L195.87 203L205.56 209.42L200.71 189.26L197.4 185.83Z" fill="white"/>
<path d="M124.5 288.83C115.22 300.16 100.12 287.22 98.4 277.14C94.35 253.47 99.56 210.06 106.46 189.49C108.68 182.87 152.64 195.49 152.75 202.94C152.86 210.76 143.32 265.84 124.5 288.83Z" fill="#F7A9A0"/>
<path d="M105.28 201.39C105.28 201.39 105.94 179.66 113.67 165.18C119.01 155.18 133.06 134.68 166.91 133.18C174.91 132.84 186.62 138.04 173.71 143.37C164.54 147.15 157.59 146.78 152.65 149.95C152.65 149.95 166.73 158.33 166.76 166.38C166.785 173.425 166.31 180.462 165.34 187.44C164.01 187.557 162.674 187.587 161.34 187.53C161.34 187.53 161.14 195.07 152.72 202.89L105.28 201.39Z" fill="#F7A9A0"/>
<path d="M120.29 156.44C125.85 154.33 137.71 150.05 148.63 149.93C160.76 149.79 184.16 152.79 184.17 161.74C184.17 168.31 175.17 167.95 175.17 167.95C175.17 167.95 184.58 171.23 183.29 177.16C182.11 182.57 175.14 181.87 175.14 181.87C175.14 181.87 180.51 184.87 178.37 189.87C175.8 195.87 164.97 188.66 157.12 192.49C155.34 193.31 120.29 156.44 120.29 156.44Z" fill="#F7A9A0"/>
<path d="M146.64 162.77C152.2 161.64 165.47 162.31 175.02 167.77C175.24 167.89 175.26 168.12 175.02 168.05C165.796 165.195 156.26 163.473 146.62 162.92C146.58 162.88 146.58 162.78 146.64 162.77Z" fill="#263238"/>
<path d="M147.14 175C152.03 174.52 165.68 175.82 175.14 181.64C175.35 181.77 175.36 182.01 175.14 181.93C166.094 178.608 156.701 176.32 147.14 175.11C147.129 175.105 147.12 175.098 147.114 175.088C147.107 175.078 147.104 175.067 147.104 175.055C147.104 175.043 147.107 175.032 147.114 175.022C147.12 175.012 147.129 175.005 147.14 175Z" fill="#263238"/>
<path d="M183.12 157.84C181.8 156.38 179.93 155.84 178.29 154.84C178.2 154.79 178.12 154.94 178.21 154.98C181.1 156.19 184.13 159.05 183.65 162.44C183.07 166.52 178.18 167.56 174.79 167.65C174.62 167.65 174.7 167.84 174.87 167.87C178.64 168.53 183.96 167.22 184.66 162.78C184.793 161.894 184.724 160.989 184.457 160.133C184.191 159.278 183.733 158.494 183.12 157.84Z" fill="#263238"/>
<path d="M174.32 167.52C174.23 167.52 174.16 167.62 174.25 167.66C179.47 169.66 182.69 173.29 182.95 175.35C183.137 176.347 183.016 177.378 182.604 178.305C182.191 179.232 181.506 180.011 180.64 180.54C178.827 181.539 176.722 181.871 174.69 181.48C174.52 181.48 174.46 181.7 174.62 181.73C177.07 182.18 181.78 182.73 183.48 178.78C184.9 175.48 183.31 170 174.32 167.52Z" fill="#263238"/>
<path d="M178.17 184.2C177.128 182.74 175.618 181.681 173.89 181.2C173.81 181.2 173.75 181.31 173.89 181.34C176.89 182.55 179.46 186.14 178.5 189.47C178.44 189.68 178.75 189.74 178.82 189.55C179.129 188.668 179.232 187.727 179.119 186.799C179.006 185.871 178.682 184.982 178.17 184.2Z" fill="#263238"/>
<path d="M179.81 137.89C179.57 136.39 177.68 134.89 174.05 134.21C177.05 135.03 179.24 136.65 179.22 138.11C179.2 139.57 178.12 141.11 174.94 142.82C174.85 142.82 174.94 142.91 175.01 142.87C176.89 142 180.23 140.58 179.81 137.89Z" fill="#263238"/>
<path d="M103 193.13L157.4 211.45C157.4 211.45 137.58 272.5 128.22 285.61C118.86 298.72 105.88 296.36 98.39 280.1C90.9 263.84 103 193.13 103 193.13Z" fill="#DC2626"/>
<path d="M131.7 212.91C132.465 212.657 133.284 212.616 134.07 212.79C134.497 212.951 134.865 213.236 135.127 213.609C135.389 213.981 135.533 214.424 135.54 214.88C135.538 215.183 135.611 215.482 135.755 215.75C135.898 216.017 136.106 216.244 136.36 216.41C136.641 216.592 136.965 216.696 137.3 216.71C137.67 216.79 138.05 216.83 138.42 216.93C137.657 217.199 136.831 217.23 136.05 217.02C135.633 216.843 135.277 216.546 135.028 216.167C134.779 215.788 134.647 215.344 134.65 214.89C134.645 214.59 134.564 214.297 134.413 214.038C134.263 213.779 134.048 213.562 133.79 213.41C133.487 213.23 133.142 213.134 132.79 213.13C132.45 213.06 132.08 213 131.7 212.91Z" fill="white"/>
<path d="M120.29 255.92C121.055 255.667 121.874 255.626 122.66 255.8C123.088 255.958 123.458 256.243 123.72 256.616C123.983 256.989 124.126 257.434 124.13 257.89C124.128 258.193 124.201 258.492 124.345 258.76C124.488 259.027 124.696 259.254 124.95 259.42C125.231 259.602 125.555 259.706 125.89 259.72C126.26 259.8 126.64 259.84 127.01 259.94C126.247 260.209 125.421 260.24 124.64 260.03C124.223 259.853 123.867 259.556 123.618 259.177C123.369 258.798 123.237 258.353 123.24 257.9C123.235 257.6 123.154 257.307 123.003 257.048C122.853 256.789 122.638 256.572 122.38 256.42C122.078 256.238 121.733 256.141 121.38 256.14C121 256.06 120.67 256 120.29 255.92Z" fill="white"/>
<path d="M125.15 289.24C124.91 289.48 124.67 289.7 124.43 289.91C124.395 289.643 124.301 289.388 124.153 289.163C124.006 288.938 123.81 288.749 123.58 288.61C123.277 288.431 122.932 288.337 122.58 288.34C122.21 288.27 121.83 288.22 121.45 288.12C122.215 287.868 123.034 287.826 123.82 288C124.119 288.097 124.393 288.258 124.623 288.472C124.852 288.687 125.032 288.949 125.15 289.24Z" fill="white"/>
<path d="M143.86 240.94C143.5 241.661 142.95 242.269 142.27 242.7C141.856 242.89 141.395 242.95 140.946 242.872C140.498 242.793 140.084 242.58 139.76 242.26C139.549 242.042 139.286 241.882 138.995 241.794C138.704 241.707 138.396 241.695 138.1 241.76C137.771 241.825 137.466 241.981 137.22 242.21C136.9 242.42 136.6 242.65 136.27 242.85C136.7 242.24 137.02 241.49 137.88 241.11C138.299 240.942 138.759 240.901 139.201 240.992C139.644 241.082 140.05 241.301 140.37 241.62C140.588 241.83 140.855 241.98 141.148 242.057C141.44 242.135 141.747 242.135 142.04 242.06C142.367 241.98 142.668 241.814 142.91 241.58C143.23 241.37 143.52 241.13 143.86 240.94Z" fill="white"/>
<path d="M106.82 244.79C106.457 245.508 105.908 246.116 105.23 246.55C104.815 246.74 104.352 246.799 103.902 246.721C103.452 246.642 103.036 246.429 102.71 246.11C102.499 245.892 102.236 245.732 101.945 245.644C101.654 245.557 101.346 245.545 101.05 245.61C100.721 245.675 100.416 245.831 100.17 246.06C99.86 246.27 99.56 246.51 99.17 246.7C99.61 246.09 99.92 245.34 100.79 244.96C101.209 244.792 101.669 244.751 102.111 244.842C102.554 244.932 102.96 245.151 103.28 245.47C103.496 245.68 103.762 245.831 104.052 245.908C104.343 245.985 104.649 245.986 104.94 245.91C105.269 245.827 105.572 245.662 105.82 245.43C106.18 245.22 106.48 245 106.82 244.79Z" fill="white"/>
<path d="M112.87 204.71C112.513 205.433 111.963 206.042 111.28 206.47C110.867 206.659 110.406 206.719 109.959 206.642C109.511 206.565 109.097 206.356 108.77 206.04C108.558 205.823 108.295 205.662 108.005 205.573C107.715 205.484 107.407 205.469 107.11 205.53C106.782 205.6 106.479 205.755 106.23 205.98C105.91 206.19 105.61 206.43 105.23 206.62C105.66 206.01 105.98 205.26 106.84 204.88C107.26 204.711 107.721 204.67 108.164 204.762C108.607 204.855 109.013 205.077 109.33 205.4C109.549 205.607 109.817 205.756 110.109 205.833C110.401 205.91 110.707 205.913 111 205.84C111.326 205.756 111.625 205.591 111.87 205.36C112.24 205.14 112.54 204.91 112.87 204.71Z" fill="white"/>
<path d="M118.3 225C118.556 225.764 118.601 226.583 118.43 227.37C118.268 227.796 117.983 228.163 117.61 228.425C117.238 228.687 116.795 228.832 116.34 228.84C116.036 228.833 115.735 228.905 115.467 229.048C115.199 229.192 114.972 229.403 114.81 229.66C114.619 229.933 114.511 230.256 114.5 230.59C114.43 230.97 114.38 231.34 114.28 231.72C114.014 230.956 113.986 230.13 114.2 229.35C114.375 228.933 114.669 228.577 115.047 228.327C115.424 228.078 115.868 227.947 116.32 227.95C116.622 227.944 116.917 227.861 117.178 227.709C117.439 227.557 117.656 227.34 117.81 227.08C117.978 226.79 118.075 226.465 118.09 226.13C118.16 225.79 118.2 225.41 118.3 225Z" fill="white"/>
<path d="M111.08 274.29C111.333 275.055 111.374 275.874 111.2 276.66C111.042 277.086 110.759 277.455 110.388 277.718C110.017 277.98 109.575 278.124 109.12 278.13C108.815 278.127 108.514 278.2 108.245 278.343C107.976 278.487 107.747 278.695 107.58 278.95C107.398 279.231 107.294 279.555 107.28 279.89C107.21 280.26 107.16 280.64 107.06 281.02C106.798 280.252 106.767 279.425 106.97 278.64C107.148 278.224 107.445 277.87 107.824 277.622C108.203 277.375 108.647 277.245 109.1 277.25C109.401 277.241 109.696 277.157 109.956 277.005C110.216 276.853 110.434 276.638 110.59 276.38C110.766 276.076 110.859 275.731 110.86 275.38C110.94 275.05 111 274.67 111.08 274.29Z" fill="white"/>
<path d="M151.33 221.64C148.372 220.291 145.344 219.099 142.26 218.07C139.16 216.87 136.03 215.81 132.9 214.74C126.82 212.65 120.69 210.79 114.56 208.95C110.99 207.87 107.4 206.95 103.83 205.95C103.7 205.95 103.65 206.17 103.83 206.22C109.97 208.52 116.09 210.91 122.28 213.06C128.47 215.21 134.45 217.2 140.59 219.01C142.34 219.53 144.11 220.01 145.87 220.48C147.659 221.071 149.482 221.552 151.33 221.92C151.42 221.94 151.46 221.71 151.33 221.64Z" fill="#263238"/>
<path d="M158.5 211.59C158.35 211.1 152.32 209.53 152.01 209.44C151.92 209.44 151.88 209.56 152.01 209.59C152.3 209.69 157.41 211.82 157.39 211.86C154.39 219.86 151.65 227.94 148.77 235.98C145.89 244.02 142.94 252.08 140.22 260.21C138.69 264.76 138.79 265.21 140.41 261.29C142.03 257.37 143.69 254.15 145.18 250.17C148.18 242.17 150.99 234.04 153.8 225.94C155.36 221.35 158.55 211.75 158.5 211.59Z" fill="#263238"/>
<path d="M253.47 306.63H222.53C219.532 306.627 216.658 305.435 214.539 303.314C212.42 301.193 211.23 298.318 211.23 295.32C211.229 293.835 211.52 292.364 212.087 290.991C212.654 289.618 213.486 288.371 214.536 287.32C215.585 286.269 216.831 285.434 218.203 284.865C219.574 284.295 221.045 284.001 222.53 284H253.47C256.468 284.003 259.342 285.195 261.461 287.316C263.58 289.437 264.77 292.312 264.77 295.31C264.771 296.795 264.48 298.266 263.913 299.639C263.346 301.012 262.514 302.259 261.464 303.31C260.415 304.361 259.169 305.196 257.797 305.765C256.426 306.335 254.955 306.629 253.47 306.63Z" fill="#455A64"/>
<path d="M229.3 295.13C229.314 294.771 229.432 294.423 229.64 294.13C229.72 293.99 229.82 293.86 229.91 293.72L230.51 293.13C230.74 292.96 230.96 292.79 231.2 292.63C232.15 292.025 233.211 291.614 234.32 291.42C236.875 290.91 239.505 290.91 242.06 291.42C243.156 291.607 244.203 292.012 245.14 292.61C245.39 292.77 245.62 292.95 245.86 293.12L246.43 293.7C246.583 293.918 246.723 294.145 246.85 294.38C246.947 294.622 247.03 294.869 247.1 295.12H246.92H242C241.959 295.126 241.918 295.118 241.882 295.098C241.846 295.079 241.817 295.048 241.8 295.01C241.662 294.741 241.455 294.512 241.201 294.349C240.946 294.186 240.652 294.093 240.35 294.08C238.878 293.985 237.402 293.985 235.93 294.08C235.629 294.092 235.336 294.183 235.081 294.345C234.826 294.506 234.619 294.732 234.48 295C234.471 295.035 234.45 295.066 234.421 295.088C234.392 295.11 234.356 295.121 234.32 295.12H229.32L229.3 295.13Z" fill="white"/>
<path d="M229.29 298V296.27C229.285 296.23 229.285 296.19 229.29 296.15H234.29C234.29 296.26 234.29 296.39 234.29 296.51C234.29 297 234.29 297.51 234.29 297.98C234.302 298.067 234.293 298.155 234.265 298.238C234.237 298.321 234.19 298.396 234.128 298.458C234.066 298.52 233.991 298.567 233.908 298.595C233.825 298.623 233.737 298.632 233.65 298.62H229.91C229.826 298.63 229.741 298.62 229.662 298.592C229.582 298.565 229.51 298.519 229.45 298.46C229.391 298.4 229.345 298.328 229.318 298.248C229.29 298.169 229.28 298.084 229.29 298Z" fill="white"/>
<path d="M242.06 298C242.06 297.37 242.06 296.75 242.11 296.12H247.05C247.05 296.12 247.05 296.19 247.05 296.23V298C247.06 298.082 247.05 298.166 247.023 298.244C246.996 298.323 246.951 298.394 246.893 298.453C246.834 298.511 246.763 298.556 246.684 298.583C246.606 298.61 246.522 298.62 246.44 298.61H242.66C242.578 298.618 242.496 298.608 242.419 298.58C242.342 298.552 242.272 298.507 242.214 298.448C242.157 298.39 242.113 298.319 242.086 298.242C242.06 298.164 242.051 298.082 242.06 298Z" fill="white"/>
<path d="M448.38 131.78C450.894 134.289 452.657 137.451 453.47 140.909C454.283 144.367 454.113 147.983 452.98 151.35L441.93 140.35L433.79 144.22L429.91 152.37L440.91 163.43C437.686 164.512 434.231 164.714 430.903 164.013C427.575 163.313 424.494 161.736 421.98 159.445C419.466 157.155 417.609 154.235 416.602 150.986C415.594 147.738 415.473 144.28 416.251 140.969C417.028 137.658 418.676 134.614 421.024 132.154C423.371 129.693 426.334 127.905 429.605 126.973C432.876 126.041 436.336 126 439.628 126.854C442.92 127.708 445.924 129.426 448.33 131.83L448.38 131.78Z" fill="#DC2626"/>
<path d="M360.48 97.86C357.967 95.35 356.205 92.1881 355.392 88.7304C354.579 85.2727 354.748 81.6568 355.88 78.29L366.93 89.34L375.07 85.46L378.95 77.32L367.9 66.26C371.124 65.1777 374.579 64.9764 377.907 65.677C381.235 66.3775 384.316 67.9544 386.83 70.2446C389.344 72.5348 391.201 75.4552 392.208 78.7036C393.216 81.952 393.337 85.4105 392.559 88.7214C391.782 92.0324 390.134 95.0755 387.786 97.5361C385.439 99.9967 382.476 101.785 379.205 102.717C375.934 103.649 372.474 103.69 369.182 102.836C365.89 101.982 362.886 100.264 360.48 97.86Z" fill="#DC2626"/>
<path d="M385.223 83.5898L373.202 95.6106L422.112 144.521L434.133 132.5L385.223 83.5898Z" fill="#DC2626"/>
<path d="M241.31 116.22C239.373 113.351 238.329 109.972 238.31 106.51C238.31 94.21 251.82 84.24 268.47 84.24C285.12 84.24 298.62 94.24 298.62 106.51C298.62 118.78 285.12 128.79 268.47 128.79C261.07 128.908 253.812 126.758 247.67 122.63L237.28 125.27L241.31 116.22Z" fill="#DC2626"/>
<path d="M279.31 106.51C279.308 107.13 279.49 107.736 279.833 108.253C280.176 108.769 280.665 109.172 281.238 109.41C281.81 109.648 282.44 109.711 283.048 109.59C283.656 109.47 284.215 109.172 284.653 108.733C285.092 108.295 285.39 107.736 285.51 107.128C285.631 106.52 285.568 105.89 285.33 105.318C285.092 104.745 284.689 104.256 284.173 103.913C283.656 103.57 283.05 103.388 282.43 103.39C281.603 103.393 280.811 103.722 280.227 104.307C279.642 104.891 279.313 105.683 279.31 106.51Z" fill="#263238"/>
<path d="M268.46 109.64C270.189 109.64 271.59 108.239 271.59 106.51C271.59 104.781 270.189 103.38 268.46 103.38C266.731 103.38 265.33 104.781 265.33 106.51C265.33 108.239 266.731 109.64 268.46 109.64Z" fill="#263238"/>
<path d="M251.36 106.51C251.358 107.13 251.54 107.736 251.883 108.253C252.226 108.769 252.715 109.172 253.288 109.41C253.86 109.648 254.49 109.711 255.098 109.59C255.706 109.47 256.265 109.172 256.703 108.733C257.142 108.295 257.44 107.736 257.56 107.128C257.681 106.52 257.618 105.89 257.38 105.318C257.142 104.745 256.739 104.256 256.223 103.913C255.706 103.57 255.1 103.388 254.48 103.39C253.653 103.393 252.861 103.722 252.277 104.307C251.692 104.891 251.363 105.683 251.36 106.51Z" fill="#263238"/>
</svg>
